<?xml version="1.0" encoding="utf-8"?>
<!-- Generator: Adobe Illustrator 27.5.0, SVG Export Plug-In . SVG Version: 6.00 Build 0)  -->
<svg version="1.1" xmlns="http://www.w3.org/2000/svg" xmlns:xlink="http://www.w3.org/1999/xlink" x="0px" y="0px"
	 viewBox="0 0 500 500" style="enable-background:new 0 0 500 500;" xml:space="preserve">
<g id="BACKGROUND">
	<rect style="fill:#FCF7F2;" width="500" height="500"/>
	<path style="fill:none;stroke:#15181F;stroke-width:0.9563;stroke-linecap:round;stroke-linejoin:round;stroke-miterlimit:10;" d="
		M445.18,209.229"/>
</g>
<g id="OBJECTS">
	<path style="fill:#7CC5C8;" d="M33.287,264.589c0.051,48.242,24.523,99.924,68.736,115.451c23.943,8.409,50.122,5.361,75.05,0.964
		c41.151-7.258,82.221-17.972,123.946-16.598c25.256,0.832,50.246,6.097,75.51,6.613c25.264,0.516,51.92-4.375,71.29-21.14
		c28.471-24.642,33.808-67.772,30.73-106.011c-2.656-32.988-10.371-66.368-28.488-93.672
		c-18.116-27.303-47.943-47.709-79.985-47.829c-62.441-0.234-106.133,62.522-156.969,91.034
		c-18.753,10.518-37.415,14.368-58.611,11.206c-28.391-4.235-58.841-27.127-87.194-12.754
		C42.303,204.528,33.287,238.025,33.287,264.589z"/>
	<path style="fill:none;stroke:#15181F;stroke-width:0.9563;stroke-linecap:round;stroke-linejoin:round;stroke-miterlimit:10;" d="
		M445.18,209.229c0,0,7.46,24.648-3.11,55.71"/>
	<path style="fill:none;stroke:#15181F;stroke-width:0.9563;stroke-linecap:round;stroke-linejoin:round;stroke-miterlimit:10;" d="
		M58.592,194.438c0,0-7.46,24.648,3.11,55.71"/>
	<path style="fill:#61A2A2;" d="M418.81,422.031c-0.298,0.132-0.602,0.27-0.911,0.402c-25.759,11.404-63.938,20.488-106.949,24.204
		c-8.123,0.704-16.102,1.182-23.889,1.457c-0.202,0.011-0.405,0.016-0.602,0.022c-32.917,1.116-62.314-1.468-84.147-6.879
		c-6.834-1.699-13.769-2.232-20.645-1.594c-1.033,0.093-2.072,0.187-3.111,0.28c-79.758,6.884-145.922-7.308-147.776-31.694
		c-1.853-24.386,61.302-49.734,141.06-56.619c48.076-4.151,91.21-0.643,118.3,8.138c4.629-0.533,9.332-1.017,14.094-1.424
		c79.758-6.884,145.917,7.302,147.771,31.689C452.846,401.093,440.27,412.37,418.81,422.031z"/>
	<ellipse style="fill:#61A2A2;" cx="89.224" cy="439.454" rx="47.852" ry="15.802"/>
	<path style="fill:#61A2A2;" d="M169.687,455.256c0,3.981-8.353,7.207-18.656,7.207c-10.303,0-18.656-3.227-18.656-7.207
		c0-3.98,8.353-7.207,18.656-7.207C161.334,448.049,169.687,451.276,169.687,455.256z"/>
	<path style="fill:#61A2A2;" d="M194.681,448.754c0,1.839-3.859,3.33-8.619,3.33c-4.76,0-8.619-1.491-8.619-3.33
		c0-1.839,3.859-3.33,8.619-3.33C190.822,445.424,194.681,446.915,194.681,448.754z"/>
	<g>
		<path style="fill:#D85714;" d="M473.279,403.892h-67.433c-3.465,0-6.273-2.809-6.273-6.273l4.069-155.05
			c0-3.465,2.809-6.273,6.273-6.273h67.433c3.465,0,6.273,2.809,6.273,6.273l-4.069,155.05
			C479.552,401.083,476.743,403.892,473.279,403.892z"/>
		
			<line style="fill:none;stroke:#15181F;stroke-width:0.9563;stroke-linecap:round;stroke-linejoin:round;stroke-miterlimit:10;" x1="470.305" y1="243.74" x2="461.91" y2="396.729"/>
		<g>
			
				<ellipse transform="matrix(0.1959 -0.9806 0.9806 0.1959 89.141 638.5881)" style="fill:#15181F;" cx="433.963" cy="264.938" rx="13.295" ry="13.295"/>
			
				<path style="fill:none;stroke:#FFFFFF;stroke-width:0.6203;stroke-linecap:round;stroke-linejoin:round;stroke-miterlimit:10;" d="
				M442.07,264.939c0,4.477-3.63,8.107-8.107,8.107c-4.478,0-8.107-3.63-8.107-8.107c0-4.478,3.63-8.107,8.107-8.107
				C438.44,256.831,442.07,260.461,442.07,264.939z"/>
		</g>
		<g>
			<circle style="fill:#15181F;" cx="432.349" cy="310.657" r="22.626"/>
			
				<path style="fill:none;stroke:#FFFFFF;stroke-width:0.6203;stroke-linecap:round;stroke-linejoin:round;stroke-miterlimit:10;" d="
				M440.456,310.657c0,4.478-3.63,8.107-8.107,8.107c-4.478,0-8.107-3.63-8.107-8.107c0-4.477,3.63-8.107,8.107-8.107
				C436.826,302.55,440.456,306.18,440.456,310.657z"/>
			
				<circle style="fill:none;stroke:#FFFFFF;stroke-width:0.519;stroke-linecap:round;stroke-linejoin:round;stroke-miterlimit:10;" cx="432.349" cy="310.657" r="19.839"/>
		</g>
		<g>
			<circle style="fill:#15181F;" cx="429.754" cy="363.438" r="22.626"/>
			
				<path style="fill:none;stroke:#FFFFFF;stroke-width:0.6203;stroke-linecap:round;stroke-linejoin:round;stroke-miterlimit:10;" d="
				M437.861,363.438c0,4.477-3.63,8.107-8.107,8.107c-4.478,0-8.107-3.63-8.107-8.107c0-4.477,3.63-8.107,8.107-8.107
				C434.231,355.331,437.861,358.96,437.861,363.438z"/>
			
				<circle style="fill:none;stroke:#FFFFFF;stroke-width:0.519;stroke-linecap:round;stroke-linejoin:round;stroke-miterlimit:10;" cx="429.754" cy="363.438" r="19.839"/>
		</g>
	</g>
	<g>
		<circle style="fill:#D85714;" cx="364.364" cy="163.377" r="1.47"/>
		<g>
			<path style="fill:#15181F;" d="M361.129,166.921c-3.132-1.196-6.798,0.213-9.116,2.636c-2.318,2.423-3.539,5.674-4.514,8.882
				c-0.975,3.208-1.782,6.518-3.479,9.409c-2.097,3.573-5.537,6.337-9.478,7.615c-3.282,1.065-6.795,1.113-10.195,1.704
				c-7.675,1.335-14.811,5.569-19.659,11.667c-4.849,6.098-7.367,14.003-6.938,21.782c0.23,4.177,1.291,8.321,3.228,12.029
				c3.315,6.346,9.078,11.184,15.496,14.358c6.418,3.174,13.492,4.799,20.571,5.878L361.129,166.921z"/>
			<path style="fill:#15181F;" d="M360.055,166.591c4.927-0.956,6.303,1.587,7.454,4.435c1.151,2.848,3.725,6.999,3.608,10.302
				c-0.117,3.303-0.536,8.296,0,11.456c0.663,3.905,0.236,4.951,2.974,7.062c2.28,1.758,5.02,2.591,7.522,3.919
				c5.649,3,10.079,8.668,12.206,15.616c2.127,6.948,1.93,15.113-0.54,22.498c-1.327,3.965-3.296,7.713-5.831,10.846
				c-4.34,5.361-10.184,8.724-16.085,10.34c-5.901,1.616-29.134,0.139-34.978-0.408L360.055,166.591z"/>
			<g>
				<g>
					<path style="fill:#F7EBE2;" d="M341.829,368.007c-1.214,1.277-3.011,2.174-4.721,2.783c1.251,1.221,2.172,2.765,2.551,4.456
						c0.56,2.497,0.033,5.081,0.052,7.633c0.038,4.979,2.282,9.927,6.036,13.304l8.62-31.248l-10.756-2.967
						C344.061,364.123,343.443,366.311,341.829,368.007z"/>
					<path style="fill:#F7EBE2;" d="M341.829,368.007c-1.212,1.275-3.006,2.171-4.714,2.78c1.248,1.223,2.165,2.769,2.544,4.458
						c0.56,2.497,0.033,5.081,0.052,7.633c0.038,4.979,2.282,9.927,6.036,13.304l8.62-31.248l-10.756-2.967
						C344.061,364.123,343.443,366.311,341.829,368.007z"/>
					<path style="fill:#F7EBE2;" d="M347.633,395.943l8.392-30.421c0.239-0.865-0.288-1.772-1.17-2.016l0,0
						c-0.883-0.243-1.8,0.265-2.038,1.131l-8.392,30.421c-0.239,0.866,0.288,1.773,1.17,2.016l0,0
						C346.477,397.318,347.395,396.809,347.633,395.943z"/>
					<path style="fill:none;stroke:#2D201B;stroke-width:0.4896;stroke-miterlimit:10;" d="M349.515,375.726
						c0,0-6.318-3.569-2.991-13.149"/>
				</g>
				<g>
					<g>
						<g>
							<g>
								<g>
									<path style="fill:#F8E876;" d="M384.499,203.277l14.323-34.683l0.335-0.81c0.668-1.617,0.5-3.371-0.284-4.779
										l-18.891-33.499c-0.702-1.246-2.319-1.69-3.61-0.993c-1.078,0.582-1.587,1.778-1.318,2.882l12.848,37.712l0.051-5.589
										l-18.053,34.216c-1.625,3.934,0.327,8.364,4.358,9.895C378.289,209.16,382.874,207.212,384.499,203.277z"/>
									<path style="fill:#F8E876;" d="M348.185,194.975l-13.605-36.137l-1.135,5.701l24.569-33.829
										c0.962-1.325,0.668-3.179-0.657-4.141c-1.206-0.876-2.851-0.71-3.862,0.326l-29.235,29.889
										c-1.331,1.361-1.77,3.263-1.325,4.981l0.19,0.721l9.792,37.351c1.123,4.286,5.508,6.849,9.794,5.725
										c4.286-1.123,6.849-5.508,5.726-9.794C348.367,195.499,348.28,195.229,348.185,194.975z"/>
									<path style="fill:#F8E876;" d="M360.835,186.49c-0.157,0.169-0.321,0.324-0.494,0.472l-0.002,0.004
										c-1.744,1.484-4.268,1.976-6.586,1.06c-0.205-0.079-0.405-0.17-0.596-0.27c-2.955-1.516-4.389-5.041-3.216-8.136
										l2.278-5.998c0.061-0.156,0.125-0.31,0.196-0.46c0.22-0.462,0.489-0.888,0.801-1.27c1.71-2.085,4.676-2.921,7.371-1.852
										c3.347,1.325,5.063,5.109,3.808,8.404l-1.151,3.029l-0.28,0.74c-0.004-0.002-0.002,0.004-0.002,0.004l-0.846,2.225
										C361.822,185.227,361.382,185.918,360.835,186.49z"/>
									<path style="fill:#F8E876;" d="M359.553,181.828c-0.668,4.354-0.588,13.335,0.377,17.374
										c-0.842,1.182-2.11,1.5-3.308,1.729c-1.198,0.229-2.323-0.251-3.486-0.453c-2.106-0.368-3.565-0.959-3.877-2.887
										c0.405-0.526,1.524-2.741,2.137-4.013c1.051-2.179,2.007-7.875,1.387-10.088
										C355.294,183.635,357.013,182.157,359.553,181.828z"/>
									<path style="fill:#FBFBFB;" d="M355.457,182.412c-0.458,0.938-1.583,1.361-2.583,0.943c-1-0.418-1.51-1.524-1.189-2.52
										L355.457,182.412z"/>
									<path style="fill:#96D0CA;" d="M371.96,197.572"/>
									<path style="fill:#F8E876;" d="M375.72,119.484c-0.925,0.175-0.018,4.136-0.018,4.136s-1.511-5.076-2.229-5.067
										c-1.133,0.014,0.677,5.755,0.677,5.755s-2.131-6.194-3.246-5.61c-1.115,0.584,1.699,6.451,1.699,6.451
										s-2.994-5.343-3.864-4.681c-0.87,0.661,3.261,7.396,3.261,7.396s-3.824-1.23-4.151-0.458
										c-0.552,1.302,7.45,4.257,7.45,4.257l5.125-0.351C380.424,131.31,376.644,119.309,375.72,119.484z"/>
									<path style="fill:#F8E876;" d="M358.37,116.595c1.062,0.244-0.165,4.785-0.165,4.785s1.976-5.804,2.805-5.762
										c1.31,0.067-1.042,6.627-1.042,6.627s2.744-7.07,4.007-6.344c1.264,0.725-2.254,7.386-2.254,7.386s3.703-6.047,4.68-5.242
										c0.977,0.804-4.105,8.409-4.105,8.409s4.479-1.251,4.823-0.344c0.456,1.204-5.25,3.353-7.711,4.217
										c-0.709,0.249-1.463,0.335-2.211,0.255l-0.354-0.038c-2.27-0.244-3.692-2.57-2.876-4.702
										C355.502,121.834,357.701,116.441,358.37,116.595z"/>
									<path style="fill:#F8E876;" d="M349.719,313.384c7.113,1.72,12.426,8.037,14.786,14.964
										c2.36,6.927,2.526,23.145,2.021,30.446c-0.548,7.922-1.082,16.937-2.429,24.763
										C359.873,363.421,353.943,333.519,349.719,313.384z"/>
									<path style="fill:#F8E876;" d="M311.135,305.076c6.243,0.36,12.204,5.481,15.914,11.73
										c3.711,6.248,5.535,13.513,7.007,20.644c1.597,7.738,2.858,15.522,3.779,23.313
										C329.197,342.12,319.773,323.719,311.135,305.076z"/>
									<path style="fill:#F8E876;" d="M369.267,261.706c-0.34-4.91-3.401-9.554-7.794-11.781
										c-4.489-2.276-10.192-1.937-14.38,0.855c0.511-0.341-4.02-8.391-5.465-8.651c-3.31-0.595-7.412,1.996-9.72,4.066
										c-2.758,2.474-4.807,5.622-6.822,8.73c-9.328,14.387-18.656,28.774-27.984,43.162c-1.099,1.695-2.237,3.517-2.232,5.537
										c0.005,2.02,1.153,3.837,2.261,5.526c13.032,19.858,26.17,39.646,39.414,59.364c0.501,0.745,1.027,1.516,1.802,1.97
										c2.257,1.325,5.239-0.968,5.618-3.557c0.379-2.589-0.927-5.093-2.176-7.392c-9.145-16.836-17.458-34.125-24.898-51.781
										c-0.392-0.93-0.79-1.917-0.652-2.917c0.128-0.935,0.705-1.738,1.269-2.495c7.036-9.443,14.798-18.346,23.195-26.603
										c1.604,11.815-1.114,23.855,0.052,35.721c1.411,14.361,8.384,27.532,11.953,41.515c2.761,10.817,3.546,22.63,8.489,32.868
										c0.972,2.013,2.924,4.274,4.994,3.431c0.83-0.338,1.397-1.12,1.786-1.927c1.337-2.773,1.033-6.089,0.035-9.001
										s-2.023-31.931-3.361-34.703c-5.241-10.857-3.224-7.9-8.068-17.015c-2.996-5.637-3.699-4.215-3.629-10.598
										c0.087-7.963,3.035-15.582,5.942-22.996c2.545-6.492,5.091-12.983,7.636-19.475c1.454-3.708,2.932-7.553,2.754-11.532
										C369.28,261.921,369.274,261.813,369.267,261.706z"/>
									<path style="fill:#515EFA;" d="M313.008,277.466c4.854,3.668,10.31,6.67,16.05,8.701c0.433,0.153,0.867,0.299,1.303,0.441
										c3.33-3.731,6.774-7.361,10.34-10.867c0.593,4.369,0.594,8.769,0.42,13.179c2.655,0.306,5.332,0.437,8.007,0.401
										c3.917-0.052,7.819-0.457,11.672-1.146c1.91-4.871,3.82-9.743,5.73-14.614c1.454-3.708,2.932-7.553,2.754-11.532
										c-0.005-0.108-0.011-0.215-0.018-0.323c-0.34-4.91-3.401-9.554-7.794-11.781c-4.489-2.276-10.192-1.936-14.38,0.855
										c0.511-0.341-4.02-8.391-5.465-8.651c-3.31-0.595-7.412,1.996-9.72,4.066c-2.758,2.474-4.807,5.622-6.822,8.731
										c-4.586,7.073-9.172,14.146-13.757,21.219C311.882,276.598,312.443,277.039,313.008,277.466z"/>
									<path style="fill:#F8E876;" d="M383.396,202.269c-1.29,1.724-2.68,3.401-3.253,2.597c-0.011-0.016-0.023-0.033-0.034-0.048
										c-1.694-2.314-4.088-4.066-6.79-5.42l-0.011-0.005c-0.012-0.007-0.025-0.012-0.036-0.016
										c-2.521-1.259-5.307-2.167-8.04-2.856c-2.02-0.511-4.014-0.902-5.848-1.225c-0.876-0.154-1.806-0.279-2.769-0.366
										c-0.523-0.045-1.058-0.082-1.598-0.105c-3.875-0.165-11.911-0.883-17.834-0.03c-8.014-6.594-2.661,53.257-2.661,53.257
										l22.678,5.186l8.016-6.344c0.052-0.489,0.233-1.001,0.588-1.518c5.136-7.475,10.001-15.2,13.683-23.51
										c1.882-4.248,3.533-8.915,4.048-13.527C383.779,206.178,383.782,204.166,383.396,202.269z"/>
									<path style="fill:#F8E876;" d="M379.489,221.866c-0.565,1.276-1.162,2.537-1.779,3.787
										c-1.959-2.377-3.782-4.857-5.321-7.542c-2.104-3.67-3.565-7.726-3.632-11.992c-0.043-2.772,0.486-5.483,1.246-8.141
										c1.12,0.412,10.282-3.888,13.393,4.29c0.386,1.898,0.383,3.909,0.141,6.07C383.022,212.951,381.37,217.619,379.489,221.866
										z"/>
									<path style="fill:#F8E876;" d="M343.273,202.623c-2.359,3.507-6.046,5.865-10.068,7.018
										c-0.134,0.038-0.271,0.067-0.405,0.103c0.179-10.066,0.356-22.546,3.464-19.988c2.885-0.416,8.533,1.625,10.356,4.665
										C345.875,197.311,344.948,200.135,343.273,202.623z"/>
									<path style="fill:#F8E876;" d="M362.728,187.327c-0.741-0.042-1.401-0.355-1.893-0.836
										c-0.065-0.062-0.124-0.126-0.18-0.198c-0.471-0.552-0.74-1.283-0.696-2.067c0.006-0.087,0.013-0.169,0.026-0.253
										c0.057-0.405,0.195-0.78,0.401-1.109c0.545-0.902,1.553-1.471,2.671-1.408c0.065,0.004,0.126,0.01,0.189,0.018
										c0.149,0.017,0.293,0.045,0.432,0.084c1.305,0.359,2.229,1.594,2.151,3.001
										C365.738,186.179,364.349,187.417,362.728,187.327z"/>
								</g>
							</g>
						</g>
					</g>
				</g>
				<g>
					<path style="fill:#F7EBE2;" d="M366.127,385.514c-1.205,1.285-2.996,2.195-4.701,2.816c1.26,1.212,2.192,2.749,2.583,4.437
						c0.578,2.493,0.069,5.081,0.106,7.632c0.073,4.979,2.353,9.91,6.131,13.261l8.397-31.309l-10.777-2.89
						C368.331,381.614,367.728,383.806,366.127,385.514z"/>
					<path style="fill:#F7EBE2;" d="M366.127,385.514c-1.203,1.283-2.99,2.192-4.694,2.814c1.257,1.214,2.185,2.754,2.576,4.44
						c0.578,2.493,0.069,5.081,0.106,7.632c0.073,4.979,2.353,9.91,6.131,13.261l8.397-31.309l-10.777-2.89
						C368.331,381.614,367.728,383.806,366.127,385.514z"/>
					<path style="fill:#F7EBE2;" d="M372.131,413.408l8.175-30.48c0.233-0.867-0.3-1.771-1.184-2.008l0,0
						c-0.884-0.237-1.798,0.278-2.03,1.145l-8.175,30.48c-0.232,0.867,0.301,1.771,1.185,2.008l0,0
						C370.984,414.791,371.898,414.275,372.131,413.408z"/>
					<path style="fill:none;stroke:#2D201B;stroke-width:0.4896;stroke-miterlimit:10;" d="M373.868,393.178
						c0,0-6.344-3.524-3.085-13.127"/>
				</g>
				
					<path style="fill:none;stroke:#15181F;stroke-width:0.8127;stroke-linecap:round;stroke-linejoin:round;stroke-miterlimit:10;" d="
					M336.045,212.155"/>
				
					<path style="fill:none;stroke:#15181F;stroke-width:0.8127;stroke-linecap:round;stroke-linejoin:round;stroke-miterlimit:10;" d="
					M360.459,220.302"/>
				
					<path style="fill:none;stroke:#15181F;stroke-width:0.8127;stroke-linecap:round;stroke-linejoin:round;stroke-miterlimit:10;" d="
					M357.995,211.328"/>
			</g>
		</g>
		
			<path style="fill:none;stroke:#2D201B;stroke-width:0.4896;stroke-linecap:round;stroke-linejoin:round;stroke-miterlimit:10;" d="
			M352.638,187.553c1.386,0.653,2.954,0.915,4.477,0.749"/>
		<path style="fill:#15181F;" d="M351.961,171.987c-0.561,1.049-0.814,2.25-0.602,3.553c0.298,1.833,1.692,3.498,3.503,3.91
			c1.387,0.316,2.872-0.102,4.051-0.897c1.179-0.796,2.084-1.939,2.83-3.15c-1.175,1.908-1.714,6.375-0.668,8.346
			c0.302-0.847,0.995-1.477,1.817-1.813c0.89-0.364,1.876-0.41,2.837-0.403c0.38-1.672,0.575-3.387,0.58-5.102
			c0.004-1.488-0.139-2.996-0.651-4.394s-1.42-2.685-2.696-3.451c-1.493-0.897-3.352-1.006-5.063-0.686
			C355.555,168.338,353.129,169.801,351.961,171.987z"/>
		<path style="fill:#FBFBFB;" d="M347.686,193.206c-0.7,9.621-6.707,18.686-15.294,23.08c0.363,11.978,0.779,23.578,1.142,35.556
			c0.099,3.277,0.313,6.854,2.51,9.288c2.429,2.693,6.651,3.084,10.095,1.946c3.444-1.138,6.313-3.515,9.148-5.777
			c2.835-2.262,5.843-4.515,9.378-5.327c2.456-9.465,11.174-16.483,13.262-26.036c-2.285,0.418-4.128-1.811-5.237-3.853
			c-4.203-7.738-6.036-16.742-5.194-25.507c-2.411-0.64-4.429-0.687-6.873-1.188c0.136,4.068-1.103,8.464-3.761,11.546
			c-0.8,0.928-1.833,1.82-3.058,1.823c-1.186,0.003-2.238-0.866-2.792-1.915c-0.554-1.049-0.705-2.258-0.832-3.438
			c-0.332-3.081-0.555-6.275,0.439-9.211C349.564,194.068,348.575,193.783,347.686,193.206z"/>
		<path style="fill:#D85714;" d="M342.24,175.742c0,0-11.382,14.33-16.522,15.668l5.324,11.435l1.35,13.441
			c0,0,13.463-3.041,15.294-23.08L342.24,175.742z"/>
		<path style="fill:#D85714;" d="M367.494,196.577l10.431-17.546l12.045,20.55l-12.045,26.356
			C377.925,225.937,365.395,227.576,367.494,196.577z"/>
		<path style="fill:#FBFBFB;" d="M356.13,173.629c3.822,0.614,7.637,1.831,10.903,3.947c1.41,0.913,2.981,2.537,4.085,3.751
			l-0.311-9.269c0-4.907-4.015-8.921-8.922-8.921h-1.679c-4.907,0-8.922,4.015-8.922,8.921v1.087
			C352.907,173.213,354.525,173.372,356.13,173.629z"/>
		<path style="fill:#D85714;" d="M368.942,179.152c-2.883-5.267-7.177-10.393-11.301-15.17c-2.845-3.296-6.059-6.582-10.235-7.816
			c-1.366-0.404-2.952-0.537-4.116,0.282c-1.958,1.378-1.53,4.378-0.664,6.61c1.531,3.946,3.772,7.616,6.582,10.781
			C352.046,173.504,365.417,176.777,368.942,179.152C368.942,179.152,366.539,176.145,368.942,179.152z"/>
		
			<path style="fill:none;stroke:#2D201B;stroke-width:0.4896;stroke-linecap:round;stroke-linejoin:round;stroke-miterlimit:10;" d="
			M363.565,163.227c-1.209,1.034-2.176,2.35-2.801,3.813"/>
		
			<path style="fill:none;stroke:#2D201B;stroke-width:0.4896;stroke-linecap:round;stroke-linejoin:round;stroke-miterlimit:10;" d="
			M358.318,122.474c0.962,2.025,0.562,4.619-0.965,6.262"/>
		
			<path style="fill:none;stroke:#2D201B;stroke-width:0.4896;stroke-linecap:round;stroke-linejoin:round;stroke-miterlimit:10;" d="
			M375.315,124.277c-0.197,1.519-0.269,3.055-0.214,4.585"/>
	</g>
	<path style="fill:none;stroke:#2D201B;stroke-width:0.5275;stroke-linecap:round;stroke-linejoin:round;stroke-miterlimit:10;" d="
		M243.979,194.198c0.142,3.084,1.501,6.079,3.683,8.12c2.183,2.042,5.159,3.102,8.073,2.877c3.95-0.306,7.408-2.793,10.747-5.058
		c3.339-2.265,7.066-4.465,11.008-4.09c4.698,0.447,8.679,3.993,13.314,5.028c11.744,2.62,21.314-3.16,28.986-12.16"/>
	<g>
		<path style="fill:#D85714;" d="M30.314,403.378h67.433c3.465,0,6.273-2.809,6.273-6.273l-4.069-155.05
			c0-3.465-2.809-6.273-6.273-6.273H26.245c-3.465,0-6.273,2.809-6.273,6.273l4.069,155.05
			C24.041,400.569,26.849,403.378,30.314,403.378z"/>
		
			<line style="fill:none;stroke:#15181F;stroke-width:0.9563;stroke-linecap:round;stroke-linejoin:round;stroke-miterlimit:10;" x1="33.287" y1="243.226" x2="41.683" y2="396.215"/>
		<g>
			
				<ellipse transform="matrix(0.3796 -0.9252 0.9252 0.3796 -201.4343 228.4671)" style="fill:#15181F;" cx="69.63" cy="264.425" rx="13.295" ry="13.295"/>
			
				<ellipse transform="matrix(0.3808 -0.9247 0.9247 0.3808 -201.3875 228.1156)" style="fill:none;stroke:#FFFFFF;stroke-width:0.6203;stroke-linecap:round;stroke-linejoin:round;stroke-miterlimit:10;" cx="69.63" cy="264.425" rx="8.107" ry="8.107"/>
		</g>
		<g>
			<circle style="fill:#15181F;" cx="71.244" cy="310.143" r="22.626"/>
			
				<ellipse transform="matrix(0.9734 -0.229 0.229 0.9734 -69.1169 24.5502)" style="fill:none;stroke:#FFFFFF;stroke-width:0.6203;stroke-linecap:round;stroke-linejoin:round;stroke-miterlimit:10;" cx="71.244" cy="310.143" rx="8.107" ry="8.107"/>
			
				<circle style="fill:none;stroke:#FFFFFF;stroke-width:0.519;stroke-linecap:round;stroke-linejoin:round;stroke-miterlimit:10;" cx="71.244" cy="310.143" r="19.839"/>
		</g>
		<g>
			<circle style="fill:#15181F;" cx="73.839" cy="362.924" r="22.626"/>
			
				<circle style="fill:none;stroke:#FFFFFF;stroke-width:0.6203;stroke-linecap:round;stroke-linejoin:round;stroke-miterlimit:10;" cx="73.839" cy="362.924" r="8.107"/>
			
				<circle style="fill:none;stroke:#FFFFFF;stroke-width:0.519;stroke-linecap:round;stroke-linejoin:round;stroke-miterlimit:10;" cx="73.839" cy="362.924" r="19.839"/>
		</g>
	</g>
	<path style="fill:#7CC5C8;" d="M179.342,166.478c-5.67,3.882-9.476,10.368-10.101,17.211c-0.393,4.305,0.477,8.813,2.953,12.357
		c2.477,3.544,6.669,5.982,10.99,5.827c3.605-0.129,6.904-1.947,10.046-3.718c4.876-2.748,9.97-5.704,12.836-10.512
		c1.436-2.409,2.219-5.146,2.858-7.878C213.278,161.157,191.77,157.968,179.342,166.478z"/>
	<path style="fill:#7CC5C8;" d="M222.025,149.607c-4.287,0.465-7.839,4.611-7.64,8.918c0.042,0.916,0.239,1.84,0.7,2.632
		c0.781,1.34,2.234,2.16,3.714,2.625c2.919,0.918,6.268,0.625,8.813-1.073c2.546-1.698,4.133-4.862,3.66-7.885
		c-0.472-3.024-3.161-5.643-6.219-5.746"/>
	<g>
		<path style="fill:#5C9CFB;" d="M21.573,115.44c-0.101-0.094-5.194,21.438-5.194,21.438l15.575-13.284L21.573,115.44z"/>
		<path style="fill:#D85714;" d="M191.263,88.811c-0.102-0.094-5.194,21.438-5.194,21.438l15.575-13.284L191.263,88.811z"/>
		<path style="fill:#D85714;" d="M42.069,129.824c-0.124-0.055,1.353,22.107,1.353,22.107l10.887-17.889L42.069,129.824z"/>
		<path style="fill:#5C9CFB;" d="M217.029,104.305c-0.124-0.055,1.352,22.106,1.352,22.106l10.888-17.889L217.029,104.305z"/>
		<path style="fill:#F8E876;" d="M248.584,110.783c-0.133-0.02,6.402,21.057,6.402,21.057l6.428-20.234L248.584,110.783z"/>
		<path style="fill:#D85714;" d="M282.388,106.151c-0.131,0.03,12.731,17.412,12.731,17.412l-0.419-21.378L282.388,106.151z"/>
		<path style="fill:#F8E876;" d="M314.97,90.655c-0.107,0.086,18.318,10.119,18.318,10.119l-8.663-19.245L314.97,90.655z"/>
		<path style="fill:#5C9CFB;" d="M335.817,69.907c-0.087,0.109,19.926,5.589,19.926,5.589l-12.347-16.757L335.817,69.907z"/>
		<path style="fill:#F8E876;" d="M67.162,136.878c-0.133-0.02,6.43,21.046,6.43,21.046l6.401-20.244L67.162,136.878z"/>
		<path style="fill:#D85714;" d="M101.718,135.003c-0.13,0.035,13.284,16.927,13.284,16.927l-1.107-21.35L101.718,135.003z"/>
		<path style="fill:#5C9CFB;" d="M133.576,118.925c-0.113,0.077,17.511,11.656,17.511,11.656l-7.21-19.926L133.576,118.925z"/>
		<path style="fill:#F8E876;" d="M157.6,93.941c-0.087,0.109,19.926,5.589,19.926,5.589l-12.347-16.757L157.6,93.941z"/>
		<path style="fill:none;stroke:#15181F;stroke-width:0.922;stroke-linecap:round;stroke-linejoin:round;stroke-miterlimit:10;" d="
			M17.917,111.818c22.017,23.318,56.311,31.095,86.053,22.098c29.742-8.996,54.491-33.484,67.939-63.41
			c23.682,29.305,59.191,44.981,94.966,39.835c35.775-5.146,68.47-30.629,84.164-65.598"/>
		<path style="fill:#D85714;" d="M364.711,65.569c-0.082-0.114-9.138,19.853-9.138,19.853l17.76-9.598L364.711,65.569z"/>
		<path style="fill:#F8E876;" d="M385.627,89.193c-0.101-0.095-5.302,21.408-5.302,21.408l15.641-13.193L385.627,89.193z"/>
		<path style="fill:#D85714;" d="M413.281,107.176c-0.12-0.065-0.184,22.154-0.184,22.154l12.098-16.966L413.281,107.176z"/>
		<path style="fill:#5C9CFB;" d="M446.028,117.432c-0.133-0.016,6.985,20.841,6.985,20.841l5.862-20.432L446.028,117.432z"/>
		<path style="fill:none;stroke:#15181F;stroke-width:0.922;stroke-linecap:round;stroke-linejoin:round;stroke-miterlimit:10;" d="
			M350.941,44.751c12.094,21.026,27.691,40.005,46.932,53.528c19.241,13.523,42.279,21.357,65.217,19.835"/>
	</g>
	<g>
		<path style="fill:#15181F;" d="M242.311,196.878c1.556,5.347,7.63,8.93,13.062,7.705c5.578-1.258,9.386-6.55,14.734-8.574
			c8.25-3.122,17.184,2.244,26.002,2.461c7.314,0.18,14.547-3.445,19.057-9.205c4.51-5.76,6.301-13.482,5.132-20.704
			c-1.732-10.701-13.225-16.563-23.274-15.827c-8.302,0.608-14.846,6.933-21.255,12.245c-7.336,6.08-15.323,10.682-23.661,15.203
			C246.351,183.305,240.245,189.776,242.311,196.878z"/>
		<g>
			<path style="fill:#515EFA;" d="M258.61,229.544l31.277-16.181l0.731-0.378c1.458-0.754,2.428-2.12,2.76-3.615l7.748-35.712
				c0.288-1.328-0.546-2.64-1.863-2.93c-1.1-0.242-2.189,0.306-2.686,1.266l-16.773,32.411l3.49-3.993l-31.277,16.181
				c-3.548,1.835-4.948,6.222-3.127,9.799C250.711,229.968,255.063,231.379,258.61,229.544z"/>
			<path style="fill:#515EFA;" d="M253.216,203.378L253.216,203.378c-4.072-0.608-6.846-4.371-6.164-8.362l1.24-7.256
				c0.682-3.991,4.572-6.758,8.644-6.15l0,0c4.072,0.608,6.846,4.371,6.164,8.362l-1.24,7.256
				C261.178,201.219,257.289,203.986,253.216,203.378z"/>
			<path style="fill:#515EFA;" d="M254.028,197.238c-1.54,4.121-3.301,12.922-3.192,17.072c-1.059,0.982-2.355,1.031-3.564,1.008
				c-1.209-0.023-2.203-0.725-3.289-1.163c-1.968-0.794-3.263-1.674-3.17-3.624c0.501-0.431,2.04-2.366,2.896-3.484
				c1.466-1.915,3.56-7.289,3.412-9.581C249.525,198.126,251.496,197.035,254.028,197.238z"/>
			<path style="fill:#F6E8D3;" d="M254.341,196.446c-0.104,1.324,0.853,2.505,2.216,2.682c1.363,0.177,2.632-0.714,2.923-2.014
				L254.341,196.446z"/>
			<path style="fill:#515EFA;" d="M248.811,193.28c0.264,1.993-0.846,3.795-2.48,4.025c-1.634,0.23-3.173-1.199-3.437-3.192
				c-0.264-1.993,0.846-3.795,2.48-4.025C247.008,189.858,248.547,191.287,248.811,193.28z"/>
			<path style="fill:#77D1CB;" d="M259.766,215.464"/>
			<path style="fill:#515EFA;" d="M301.497,162.755c-0.797-0.189-1.474,3.307-1.474,3.307s0.591-4.604,0.018-4.852
				c-0.905-0.392-1.493,4.851-1.493,4.851s0.493-5.719-0.599-5.649c-1.092,0.071-0.927,5.771-0.927,5.771s-0.493-5.345-1.418-5.125
				c-0.925,0.22-0.019,7.084-0.019,7.084s-2.604-2.346-3.137-1.844c-0.898,0.846,4.417,6.061,4.417,6.061l4.196,1.542
				C301.06,173.902,302.293,162.944,301.497,162.755z"/>
			<g>
				<path style="fill:#515EFA;" d="M218.154,210.195l-35.998,13.065l5.644,1.217l-33.295-25.042
					c-1.304-0.981-3.147-0.714-4.116,0.596c-0.882,1.192-0.736,2.838,0.281,3.863l29.335,29.647c1.336,1.35,3.218,1.816,4.927,1.396
					l0.717-0.179l37.161-9.238c4.264-1.06,6.854-5.404,5.786-9.702c-1.068-4.298-5.391-6.924-9.655-5.864
					C218.676,210.021,218.407,210.104,218.154,210.195z"/>
				<path style="fill:#515EFA;" d="M141.752,199.481c0.211-0.881,3.955,0.196,3.955,0.196s-4.781-1.716-4.738-2.406
					c0.067-1.09,5.469,0.948,5.469,0.948s-5.819-2.37-5.208-3.414c0.611-1.044,6.086,1.967,6.086,1.967s-4.965-3.156-4.292-3.96
					c0.674-0.804,6.915,3.52,6.915,3.52s-0.994-3.744-0.241-4.02c0.999-0.365,2.724,4.412,3.416,6.471
					c0.199,0.594,0.264,1.222,0.191,1.844l-0.035,0.294c-0.223,1.887-2.158,3.043-3.913,2.337
					C146.057,201.933,141.618,200.036,141.752,199.481z"/>
			</g>
			<path style="fill:#515EFA;" d="M263.766,228.966c-0.301,0.904-0.666,1.73-1.086,2.484c-1.663,2.989-4.188,4.917-6.962,6.619
				c-2.167,1.33-4.485,2.522-6.662,3.974c-1.341,0.894-2.437,1.889-3.324,2.967c-3.337,4.054-3.707,9.266-2.93,14.551
				c0.008,0.059,0.018,0.119,0.027,0.178c0.107,0.699,0.232,1.397,0.373,2.096c-2.989,0.279-10.01-3.277-12.713-4.533
				c-0.233-0.107-0.888-0.38-1.786-0.741c-3.399-1.369-10.287-4.026-10.924-3.938c1.299-0.418,2.476-1.076,3.5-2.012
				c0.039-0.033,0.076-0.067,0.108-0.101c2.031-1.913,3.433-4.946,3.912-9.383c0.016-0.153,0.032-0.306,0.043-0.455
				c0.34-3.912-0.526-6.704-2.367-10.273c-1.913-3.709-3.558-7.885-2.72-11.978c0.362-1.771,1.057-3.254,2.003-4.482
				c3.369-4.401,9.901-5.579,15.658-5.299c0.535,0.027,1.065,0.066,1.584,0.114c0.954,0.093,1.876,0.222,2.744,0.382
				c1.816,0.333,3.792,0.736,5.792,1.258c2.706,0.704,5.464,1.627,7.957,2.9c0.01,0.005,0.023,0.01,0.035,0.017l0.01,0.005
				c2.672,1.368,5.037,3.134,6.703,5.457c0.01,0.016,0.023,0.032,0.033,0.048C264.339,221.057,264.774,225.939,263.766,228.966z"/>
			<path style="fill:#15181F;" d="M225.344,240.672c-0.011,0.149-0.027,0.302-0.043,0.455c-0.11,1.019-0.271,1.961-0.475,2.836
				h21.876c0.686-0.68,1.462-1.324,2.355-1.92c2.176-1.452,4.495-2.644,6.662-3.974c2.774-1.702,5.299-3.63,6.962-6.619
				c0.42-0.754,0.785-1.58,1.086-2.484c1.008-3.027,0.573-7.909-0.989-10.147c-0.01-0.016-0.023-0.032-0.033-0.048
				c-1.667-2.323-4.032-4.088-6.703-5.457l-0.01-0.005c-0.012-0.007-0.025-0.012-0.035-0.017c-2.493-1.273-5.251-2.196-7.957-2.9
				c-2-0.522-3.976-0.924-5.792-1.258c-0.867-0.159-1.789-0.289-2.744-0.382c-0.519-0.048-1.049-0.087-1.584-0.114
				c-5.757-0.28-12.29,0.898-15.658,5.299c-0.946,1.229-1.642,2.711-2.004,4.482c-0.839,4.093,0.807,8.269,2.72,11.978
				C224.818,233.968,225.684,236.76,225.344,240.672z"/>
			<path style="fill:#E697D2;" d="M308.782,328.751c-4.371,8.105-10.684,15.817-19.411,18.592
				c-8.73,2.777-19.966-1.304-22.422-10.193c-2.777-10.055,6.042-21.439,1.255-30.695c-2.096-4.052-6.448-6.529-10.89-7.442
				c-4.442-0.913-9.684-0.699-14.198-0.266c6.424,19.782,10.548,40.322,12.264,61.067c0.624,7.563,0.911,15.316-1.201,22.598
				c-2.113,7.282-7.016,14.112-14.079,16.736c-5.138,1.913-10.913,1.432-16.133-0.254c-5.765-1.86-11.364-5.508-13.692-11.144
				c-4.016-9.713,2.857-20.103,7.587-29.484c4.974-9.862,7.784-21.385,4.91-32.063c-0.891-3.315-2.299-6.435-3.857-9.497
				c-1.217-2.4-2.531-4.76-3.763-7.15c-4.708-9.122-8.366-19.044-8.609-29.325c-0.03-1.314,0.001-2.632,0.096-3.949
				c0.61-8.599,3.895-17.102,10.079-22.94c0.288-0.274,0.583-0.542,0.887-0.803l25.293,2.517c1.258,6.186,9.174,7.753,15.431,8.028
				c8.294,0.361,16.667,0.797,24.733,2.665c1.437,0.332,2.861,0.709,4.276,1.137c9.36,2.846,18.287,8.272,23.507,16.608
				C319.234,296.888,316.286,314.831,308.782,328.751z"/>
		</g>
		<g>
			<path style="fill:#DBCFC0;" d="M284.126,343.883c1.781,0.952,4.072,1.297,6.167,1.362c-0.953,1.738-1.43,3.709-1.26,5.652
				c0.252,2.869,1.732,5.458,2.598,8.2c1.691,5.351,0.94,11.425-2.019,16.334l-20.363-30.538l10.812-6.873
				C280.317,340.486,281.76,342.619,284.126,343.883z"/>
			<path style="fill:#F7EBE2;" d="M284.126,343.883c1.778,0.95,4.065,1.295,6.158,1.362c-0.949,1.739-1.421,3.712-1.251,5.653
				c0.252,2.869,1.732,5.458,2.598,8.2c1.691,5.351,0.94,11.425-2.019,16.334l-20.363-30.538l10.812-6.873
				C280.317,340.486,281.76,342.619,284.126,343.883z"/>
			<path style="fill:#F7EBE2;" d="M287.453,375.824l-19.824-29.73c-0.564-0.846-0.3-1.999,0.587-2.563l0,0
				c0.887-0.564,2.074-0.333,2.638,0.512l19.824,29.73c0.564,0.846,0.3,1.999-0.587,2.563l0,0
				C289.204,376.9,288.017,376.669,287.453,375.824z"/>
			<path style="fill:none;stroke:#2D201B;stroke-width:0.5211;stroke-miterlimit:10;" d="M278.348,354.797
				c0,0,5.716-5.995-1.281-15.122"/>
		</g>
		<g>
			<path style="fill:#DBCFC0;" d="M228.562,392.856c1.87,0.294,4.004-0.105,5.879-0.692c-0.309,1.832-0.125,3.725,0.624,5.392
				c1.106,2.463,3.213,4.3,4.824,6.461c3.144,4.217,4.348,9.826,3.24,15.084L215.7,398.33l7.458-9.414
				C224.144,391.02,226.077,392.465,228.562,392.856z"/>
			<path style="fill:#F7EBE2;" d="M228.562,392.856c1.867,0.294,3.998-0.104,5.871-0.689c-0.305,1.832-0.116,3.724,0.632,5.39
				c1.106,2.463,3.213,4.3,4.824,6.461c3.144,4.217,4.348,9.826,3.24,15.084L215.7,398.33l7.458-9.414
				C224.144,391.02,226.077,392.465,228.562,392.856z"/>
			<path style="fill:#F7EBE2;" d="M241.338,420.113l-26.703-20.222c-0.76-0.575-0.881-1.678-0.269-2.45l0,0
				c0.612-0.772,1.734-0.934,2.494-0.358l26.703,20.222c0.76,0.575,0.881,1.678,0.269,2.45l0,0
				C243.22,420.527,242.098,420.688,241.338,420.113z"/>
			<path style="fill:none;stroke:#2D201B;stroke-width:0.5211;stroke-miterlimit:10;" d="M226.805,404.297
				c0,0,3.216-7.067-5.788-12.995"/>
		</g>
		<path style="fill:#15181F;" d="M228.189,231.003c-7.079,1.259-14.157,2.518-21.236,3.777c-4.314-6.977-6.05-15.244-7.258-23.358
			c7.219-1.382,14.226-3.698,21.548-4.339c7.323-0.64,15.613,1.607,19.294,7.97C237.82,222.545,234.222,225.794,228.189,231.003z"/>
		<path style="fill:#15181F;" d="M266.337,231.148c6.92-1.95,13.84-3.9,20.761-5.849c0.845-8.16-1.193-16.357-3.64-24.188
			c-7.101,1.9-14.416,2.867-21.287,5.48c-6.87,2.613-13.355,8.247-13.896,15.577C253.985,227.73,258.639,229.088,266.337,231.148z"
			/>
		
			<path style="fill:none;stroke:#15181F;stroke-width:0.9438;stroke-linecap:round;stroke-linejoin:round;stroke-miterlimit:10;" d="
			M256.574,286.547c-4.261,4.391-8.522,8.782-12.783,13.173"/>
		
			<path style="fill:none;stroke:#EDE2D5;stroke-width:0.9438;stroke-linecap:round;stroke-linejoin:round;stroke-miterlimit:10;" d="
			M239.158,243.676c-2.459-3.79-4.455-8.238-3.757-12.701c0.697-4.463,5.051-8.548,9.444-7.499c3.852,0.92,6.455,5.243,10.413,5.39
			c2.593,0.096,4.902-1.719,6.403-3.836c1.5-2.117,2.436-4.584,3.866-6.749c4.228-6.402,12.996-9.377,20.247-6.87"/>
		
			<path style="fill:none;stroke:#EDE2D5;stroke-width:0.9438;stroke-linecap:round;stroke-linejoin:round;stroke-miterlimit:10;" d="
			M207.014,209.402c1.182,6.08,6.529,11.113,12.669,11.925c6.14,0.812,12.612-2.658,15.335-8.221
			c3.071,1.089,5.797,3.15,9.002,3.737c3.205,0.587,7.273-1.242,7.284-4.5"/>
		
			<path style="fill:none;stroke:#15181F;stroke-width:0.9438;stroke-linecap:round;stroke-linejoin:round;stroke-miterlimit:10;" d="
			M222.052,254.559c-3.532,8.746-2.579,18.737,0.262,27.731c2.841,8.994,7.451,17.307,11.298,25.919
			c3.379,7.565,6.228,15.814,4.942,24c-1.286,8.185-7.978,16.047-16.264,15.983"/>
		<path style="fill:#15181F;" d="M246.045,189.388c0.679-0.086,1.267,0.457,1.678,1.004c1.141,1.519,1.767,3.417,1.753,5.316
			c1.463-0.48,2.493-1.855,2.948-3.325c0.456-1.47,0.424-3.042,0.36-4.58c-0.104,2.339,1.676,3.878,3.429,5.431
			c0.802,0.71,1.646,1.403,2.638,1.806c2.055,0.835,4.382,0.306,6.534-0.232c0.895-3.488,2.07-8.413,0.187-11.482
			c-2.172-3.54-7.192-4.487-11.086-3.044C250.592,181.725,248.366,185.944,246.045,189.388z"/>
	</g>
	<g>
		<path style="fill:#2D201B;" d="M149.874,172.716c0.289,1.34,0.49,2.836-0.125,4.03c-0.541,1.051-1.597,1.624-2.633,1.976
			c-1.526,0.519-3.52,1.164-4.528,2.559c-1.055,1.459-1.212,3.589-0.47,5.213c0.8,1.751,2.376,2.629,4.179,3.036
			c2.584,0.584,5.547,0.429,7.477-1.583c1.421-1.482,2.021-3.702,2.326-5.85c0.067-0.469,0.122-0.948,0.057-1.418
			c-0.046-0.331-0.151-0.648-0.264-0.958c-0.548-1.494-1.321-2.883-2.278-4.091c-0.449-0.568-0.963-1.112-1.607-1.346
			c-0.644-0.234-1.445-0.074-1.83,0.551"/>
		<g>
			<g>
				<path style="fill:#F7EBE2;" d="M140.486,380.106c-0.417,3.844-4.165,17.995-0.517,19.896c2.472,1.289,5.285,1.542,7.939,2.319
					c5.178,1.517,9.815,5.177,12.47,9.844l-34.534-0.876l4.135-35.269L140.486,380.106z"/>
				<path style="fill:#2D201B;" d="M126.976,400.553c0.009,0.016,0.016,0.033,0.024,0.049c1.115,2.046,3.051,3.717,5.489,3.747
					c3.55,0.043,6.954-3.12,8.722-6.582c0.189,0.262,0.312,0.742,0.326,1.542c0.008,0.431,0.523,0.714,0.903,0.902
					c3.453,1.708,6.397,1.866,9.609,2.807c4.978,1.458,9.543,4.553,12.82,8.594c1.062,1.31,0.084,3.266-1.602,3.223l-35.753-0.907
					c-1.167-0.03-2.057-1.056-1.92-2.216C125.596,411.713,126.557,403.942,126.976,400.553z"/>
				<path style="fill:#E2D2C3;" d="M166.318,417.075l-40.696-1.032c-1.158-0.029-2.155-0.978-2.216-2.107l0,0
					c-0.061-1.13,0.836-2.03,1.994-2.001l40.696,1.032c1.158,0.029,2.155,0.978,2.216,2.107h0
					C168.373,416.204,167.476,417.104,166.318,417.075z"/>
				<path style="fill:#F7EBE2;" d="M139.602,404.573L139.602,404.573c-0.46-0.437-0.497-1.134-0.084-1.549l6.015-6.036
					c0.414-0.415,1.128-0.397,1.588,0.04l0,0c0.46,0.437,0.497,1.134,0.084,1.549l-6.015,6.036
					C140.776,405.029,140.061,405.01,139.602,404.573z"/>
				<path style="fill:#F7EBE2;" d="M144.634,406.725L144.634,406.725c-0.459-0.438-0.531-1.1-0.159-1.472l5.406-5.409
					c0.372-0.372,1.051-0.318,1.511,0.12l0,0c0.459,0.438,0.531,1.1,0.159,1.472l-5.406,5.409
					C145.773,407.216,145.093,407.162,144.634,406.725z"/>
			</g>
			<g>
				<path style="fill:#D85714;" d="M150.745,174.121c0.386,2.043,0.258,7.702,0.174,9.901c-0.174,4.516-2.288,7.194-3.561,8.338
					c1.345,1.85,5.673,3.384,7.888,3.949c2.216,0.565,4.627,0.332,6.694-0.647c0.564-0.267,1.101-0.587,1.637-0.906
					c0.658-0.392,1.315-0.783,1.973-1.175c-2.851-4.91-5.287-10.343-4.523-15.969c-1.423-0.265-3.437-0.865-4.86-1.13
					c-0.617-0.115-1.241-0.23-1.868-0.204C153.303,176.321,151.728,174.289,150.745,174.121z"/>
				<path style="fill:#2D201B;" d="M179.954,250.243c-0.021,0.314,2.892,29.268-9.441,36.446
					c-9.746,5.673-22.036,10.757-30.789,2.006c-6.281-6.28-5.601-18.355-5.553-27.214L179.954,250.243z"/>
				<path style="fill:#F8E876;" d="M184.712,230.568c-0.163,2.608-0.409,5.217-0.725,7.818c-0.59,4.918-1.436,9.812-2.466,14.662
					c-0.316,1.482-0.672,3.003-1.283,4.403c-0.437,0.995-1.006,1.926-1.784,2.747c-3.067,3.23-8.12,3.742-12.587,3.93
					c-5.529,0.231-11.07,0.142-16.599-0.132c-4.627-0.231-10.607,0.135-15.106-1.251c-0.224-0.068-0.441-0.139-0.657-0.217
					c-4.271-1.535-5.213-5.803-5.529-9.453c-0.497-5.643-0.295-11.229-1.091-16.855c-0.601-4.257-1.674-8.465-2.85-12.644
					c-0.444-1.571-0.903-3.138-1.358-4.698c-1.023-3.529-2.157-7.065-2.338-10.7c-0.185-3.639-6.741,0.565-4.158-2.271
					c0.878-0.96,2.857-2.79,5.217-4.794c4.271-3.621,9.779-7.8,12.217-8.408c0.611-0.153,1.226-0.291,1.841-0.416
					c1.059-0.217,2.121-0.398,3.188-0.544c3.045-0.419,6.134-0.572,9.239-0.561c0.188-0.004,0.373,0,0.561,0.003
					c5.419,0.046,10.902,0.576,16.34,1.034c1.233,0.103,2.466,0.203,3.692,0.295c3.856,0.281,8.081,0.608,10.913,2.868
					c0.128,0.103,0.256,0.21,0.377,0.32c2.157,1.947,2.882,4.776,3.401,7.459c0.291,1.525,0.547,3.049,0.764,4.581
					C185.006,215.305,185.195,222.945,184.712,230.568z"/>
			</g>
			<g>
				<path style="fill:#D85714;" d="M204.79,318.207l-16.88-27.773h-22.543l20.462,33.666l-15.668,49.888
					c0.098,2.443-0.016,2.619,2.346,4.984c1.498,1.5,2.932,1.661,4.495,1.173c0.477-0.646,6.235-9.773,6.548-10.554l21.953-42.803
					C206.627,323.975,206.363,320.796,204.79,318.207z"/>
			</g>
			<g>
				<path style="fill:#2E2521;" d="M154.138,167.349c1.788,0.215,2.917,1.939,2.816,3.586c-0.102,1.647-1.157,3.177-2.389,4.452
					c-0.853-1.918-1.488-3.618-2.342-5.537c-0.321-0.721-0.583-1.678,0.094-2.218C152.696,167.329,153.654,167.29,154.138,167.349z"
					/>
				<path style="fill:#D85714;" d="M163.272,175.85c0.003,0.063,0.005,0.126,0.006,0.189c0.001,0.032,0.001,0.064,0.001,0.096
					c0,0.02,0,0.04,0,0.06c0,0.061-0.002,0.121-0.004,0.181c-0.001,0.018-0.002,0.036-0.002,0.054
					c-0.004,0.088-0.011,0.176-0.019,0.263c-0.009,0.093-0.02,0.185-0.034,0.277c-0.005,0.033-0.01,0.065-0.015,0.097
					c-0.003,0.02-0.007,0.039-0.01,0.059c-0.013,0.078-0.028,0.155-0.046,0.232c-0.04,0.187-0.09,0.37-0.148,0.551
					c-0.014,0.043-0.028,0.087-0.043,0.13c-0.136,0.388-0.312,0.759-0.523,1.106c-0.046,0.075-0.094,0.15-0.142,0.222
					c-0.026,0.04-0.053,0.078-0.08,0.117c-0.046,0.064-0.092,0.127-0.14,0.189c-0.117,0.152-0.241,0.298-0.373,0.438
					c-0.062,0.065-0.124,0.129-0.188,0.191c-0.262,0.255-0.548,0.485-0.856,0.687c-0.231,0.153-0.475,0.289-0.729,0.408
					c-0.056,0.026-0.112,0.051-0.168,0.075c-0.04,0.017-0.08,0.034-0.121,0.05c-0.022,0.009-0.044,0.018-0.066,0.027
					c-0.021,0.008-0.041,0.016-0.062,0.023c-0.066,0.025-0.132,0.049-0.199,0.071c-0.397,0.133-0.814,0.223-1.247,0.267
					c-0.095,0.009-0.189,0.016-0.284,0.021c-1.061,0.055-2.079-0.185-2.968-0.65c-1.675-0.875-2.897-2.549-3.1-4.56l-0.137-1.364
					l-0.404-4.013l-0.127-1.255l-0.175-1.732c-0.009-0.095-0.017-0.191-0.021-0.285c-0.002-0.046-0.004-0.094-0.005-0.14
					c-0.001-0.038-0.002-0.074-0.002-0.111c-0.001-0.037,0-0.075,0.001-0.112c0-0.009,0-0.018,0-0.027
					c0-0.023,0.001-0.046,0.002-0.068c0-0.027,0.001-0.054,0.002-0.082c0-0.016,0.001-0.033,0.002-0.05
					c0.002-0.04,0.004-0.08,0.007-0.12c0.002-0.034,0.005-0.067,0.008-0.101c0.001-0.02,0.003-0.04,0.006-0.06
					c0.007-0.078,0.017-0.156,0.028-0.233c0.006-0.044,0.012-0.088,0.02-0.131c0.006-0.04,0.014-0.08,0.021-0.12
					c0.007-0.039,0.015-0.078,0.023-0.117c0.001-0.001,0.001-0.002,0.001-0.003c0.008-0.039,0.017-0.078,0.026-0.117
					c0.009-0.039,0.019-0.078,0.029-0.118c0.01-0.039,0.02-0.078,0.031-0.117c0.022-0.079,0.046-0.157,0.07-0.234
					c0.005-0.015,0.01-0.029,0.015-0.044c0.021-0.064,0.043-0.127,0.066-0.19c0.006-0.015,0.011-0.029,0.017-0.044
					c0.025-0.065,0.05-0.129,0.077-0.193c0.004-0.01,0.008-0.02,0.013-0.03c0.805-1.88,2.581-3.285,4.75-3.504
					c2.439-0.246,4.693,1.077,5.749,3.144c0.318,0.621,0.527,1.31,0.601,2.043l0.844,8.365
					C163.26,175.657,163.267,175.754,163.272,175.85z"/>
				<path style="fill:#2D201B;" d="M155.687,174.522c-0.235,0.258-0.468,0.523-0.711,0.79c-0.257,0.282-0.833,0.269-0.948-0.16
					c-0.567-2.102-1.121-3.96-2.997-4.645l0.047,0.464l0.127,1.255l0.404,4.013l0.137,1.364c0.203,2.011,1.425,3.684,3.1,4.56
					c0.889,0.465,1.907,0.704,2.968,0.65c0.094-0.005,0.188-0.012,0.284-0.021c0.433-0.044,0.85-0.134,1.247-0.267
					c0.067-0.022,0.133-0.046,0.199-0.071c0.021-0.007,0.041-0.015,0.062-0.023c0.022-0.009,0.045-0.018,0.066-0.027
					c0.041-0.016,0.081-0.033,0.121-0.05c0.056-0.024,0.112-0.049,0.168-0.075c0.254-0.119,0.497-0.255,0.729-0.408
					c0.307-0.202,0.593-0.433,0.856-0.687c0.064-0.063,0.127-0.126,0.188-0.191c0.131-0.14,0.256-0.286,0.373-0.438
					c0.048-0.062,0.094-0.125,0.14-0.189c0.027-0.039,0.054-0.077,0.08-0.117c0.049-0.072,0.096-0.147,0.142-0.222
					c0.211-0.348,0.387-0.718,0.523-1.106c0.015-0.043,0.03-0.086,0.043-0.13c0.058-0.181,0.108-0.364,0.148-0.551
					c0.017-0.077,0.033-0.154,0.046-0.232c0.003-0.02,0.007-0.039,0.01-0.059c0.005-0.032,0.01-0.064,0.015-0.097
					c0.014-0.092,0.025-0.184,0.034-0.277c0.009-0.087,0.015-0.175,0.019-0.263c0.001-0.018,0.002-0.036,0.002-0.054
					c0.003-0.061,0.004-0.12,0.005-0.181c0.001-0.02,0-0.04,0-0.06c0-0.032,0-0.064-0.001-0.096
					c-0.001-0.063-0.003-0.126-0.006-0.189c-0.005-0.096-0.012-0.193-0.022-0.29l-0.307-3.042
					C160.677,172.529,157.509,172.847,155.687,174.522z"/>
			</g>
			<path style="fill:#D85714;" d="M135.641,303.414l-0.712,20.782c-1.643,16.487-5.57,57.023-5.569,57.024
				c2.199,2.688,3.665,3.811,9.919,5.766c5.562-28.739,12.763-58.85,16.486-83.572H135.641z"/>
			<polygon style="fill:#2D201B;" points="135.372,271.743 132.954,318.907 154.722,329.186 159.547,285.001 180.722,321.326 
				200.072,302.581 177.094,268.72 			"/>
			<g>
				<path style="fill:#F7EBE2;" d="M178.09,378.62c-2.233,3.405-2.243,8.165-0.025,11.283c1.504,2.114,3.806,3.395,5.715,5.103
					c3.726,3.332,5.94,8.448,5.955,13.757l-29.349-13.665l9.591-20.599L178.09,378.62z"/>
				<path style="fill:#2D201B;" d="M186.503,396.239c-2.182-1.951-4.813-3.416-6.531-5.831c-1.469-2.065-2.083-4.76-1.843-7.418
					c-1.149,0.723-2.282,1.475-3.461,2.139c-1.142,0.643-2.351,1.218-3.619,1.421c-1.274,0.203-2.499-0.074-3.52-0.818
					c-0.752-0.548-1.344-1.298-1.829-2.126l-5.931,12.738l33.539,15.616C193.292,405.892,190.761,400.047,186.503,396.239z"/>
				<path style="fill:#F7EBE2;" d="M191.58,413.508l-32.509-15.137c-0.968-0.451-1.391-1.612-0.941-2.58l0.069-0.149
					c0.451-0.968,1.612-1.391,2.58-0.941l32.508,15.136c0.968,0.451,1.391,1.612,0.941,2.58l-0.069,0.149
					C193.709,413.536,192.548,413.959,191.58,413.508z"/>
				<path style="fill:#F7EBE2;" d="M173.398,389.368L173.398,389.368c-0.173-0.544,0.117-1.166,0.644-1.384l7.673-3.163
					c0.528-0.217,1.101,0.049,1.274,0.593l0,0c0.173,0.544-0.117,1.166-0.644,1.384l-7.673,3.163
					C174.144,390.178,173.571,389.911,173.398,389.368z"/>
				<path style="fill:#F7EBE2;" d="M175.524,393.434L175.524,393.434c-0.173-0.544,0.117-1.167,0.644-1.384l7.673-3.163
					c0.527-0.217,1.101,0.049,1.274,0.593l0,0c0.173,0.544-0.117,1.167-0.645,1.384l-7.673,3.163
					C176.27,394.245,175.697,393.978,175.524,393.434z"/>
			</g>
			<g>
				<path style="fill:#D85714;" d="M119.78,215.94l-23.841-31.638l-0.849-1.126c-0.761-1.01-1.123-2.198-1.113-3.371l0.352-43.052
					c0.015-1.788,1.476-3.225,3.263-3.211c1.529,0.012,2.802,1.085,3.129,2.514l9.623,41.964l-1.962-4.498l27.916,28.108
					c4.263,4.292,4.239,11.228-0.053,15.491C131.614,221.795,123.7,221.216,119.78,215.94L119.78,215.94z"/>
				<path style="fill:#D85714;" d="M97.547,138.146c3.195,0.256,6.959-4.75,8.631-7.004c0.996-1.342,1.71-2.68,2.403-4.186
					l-2.375-1.085l1.59-3.479l-9.993-4.567c-2.009,4.397-5.374,10.912-4.968,16.266c0.246,3.245,2.102,4.993,3.886,7.116
					L97.547,138.146z"/>
				
					<path style="fill:none;stroke:#2D201B;stroke-width:0.5211;stroke-linecap:round;stroke-linejoin:round;stroke-miterlimit:10;" d="
					M107.475,126.45l-4.833-2.209c-1.012,0.608-2.294,0.515-3.485,0.177c-0.539-0.153-0.953,0.502-0.595,0.932
					c1.322,1.587,3.061,2.597,5.344,2.501c-2.576-0.084-4.388,1.683-5.34,3.885"/>
				
					<path style="fill:none;stroke:#2D201B;stroke-width:0.5211;stroke-linecap:round;stroke-linejoin:round;stroke-miterlimit:10;" d="
					M98.552,131.349c-0.189-1.925-0.432-3.813-1.283-5.552"/>
			</g>
			<path style="fill:#D85714;" d="M199.026,197.217l24.328-3.294l-4.839,2.983l26.809-31.42c1.569-1.839,4.331-2.058,6.17-0.488
				c1.667,1.422,2.001,3.825,0.881,5.632l-21.729,35.125c-0.946,1.529-2.446,2.507-4.081,2.834l-0.759,0.149l-24.091,4.724
				c-4.464,0.875-8.792-2.034-9.667-6.497C191.125,202.336,194.35,197.837,199.026,197.217L199.026,197.217z"/>
			<path style="fill:#FFFFFF;" d="M157.226,174.574c-0.01,0.1-0.012,0.202-0.003,0.305c0.082,0.891,0.87,1.547,1.762,1.466
				c0.891-0.082,1.548-0.87,1.466-1.762c-0.01-0.104-0.031-0.203-0.058-0.3L157.226,174.574z"/>
			<path style="fill:#F8E876;" d="M143.89,204.395c-3.183-13.027-20.761-17.728-26.442-29.543
				c-4.109,9.638-7.958,17.3-10.669,27.569c3.399,7.88,12.335,18.628,19.903,22.854C133.659,221.523,144.144,217.305,143.89,204.395
				z"/>
			<path style="fill:#F8E876;" d="M165.286,198.937c3.4-4.633,15.106-4.487,20.396-6.003c5.226-1.499,10.834-3.218,15.672-5.576
				c4.629,7.588,8.197,22.243,6.868,31.129c-5.954,4.585-25.915,8.75-32.618,8.484L165.286,198.937z"/>
			<path style="fill:none;stroke:#2D201B;stroke-width:0.5211;stroke-miterlimit:10;" d="M183.166,204.085
				c3.003,6.65,3.001,17.367,1.716,22.095c1.64-4.061,3.446-8.328,4.076-12.656"/>
			<path style="fill:none;stroke:#2D201B;stroke-width:0.5211;stroke-miterlimit:10;" d="M165.162,252.72
				c5.211,5.558,14.243,6.253,14.243,6.253s-6.948-4.169-7.643-8.685"/>
			<polyline style="fill:none;stroke:#2D201B;stroke-width:0.5211;stroke-miterlimit:10;" points="123.127,203.389 122.78,216.938 
				128.686,198.526 			"/>
			<g>
				<path style="fill:#D85714;" d="M241.243,171.164c-1.152-1.186-0.862-4.36-1.404-5.979c-0.227-0.68-1.917-2.831-1.795-3.443
					c0.295-1.478,2.075,0.162,2.681,0.706c1.228,1.101,1.542,2.428,1.954,3.921l5.877-7.146l9.106,7.489l-8.053,9.792
					c-1.522,1.851-5.971-0.708-5.857-3.467C242.931,172.612,241.921,171.862,241.243,171.164z"/>
				<path style="fill:#D85714;" d="M245.751,167.469l4.824-5.866c0.598-0.728,0.493-1.812-0.235-2.411l0,0
					c-0.728-0.598-1.812-0.493-2.411,0.235l-4.824,5.866c-0.598,0.728-0.493,1.812,0.235,2.411l0,0
					C244.068,168.303,245.152,168.197,245.751,167.469z"/>
				<path style="fill:#D85714;" d="M248.166,169.456l4.824-5.866c0.598-0.727,0.493-1.812-0.235-2.411l0,0
					c-0.727-0.598-1.812-0.493-2.411,0.235l-4.824,5.866c-0.598,0.727-0.493,1.812,0.235,2.411l0,0
					C246.483,170.289,247.568,170.183,248.166,169.456z"/>
				<path style="fill:#D85714;" d="M250.582,171.442l4.824-5.866c0.598-0.728,0.493-1.812-0.235-2.411l0,0
					c-0.728-0.598-1.812-0.493-2.411,0.235l-4.824,5.866c-0.598,0.727-0.493,1.812,0.235,2.411l0,0
					C248.899,172.276,249.983,172.17,250.582,171.442z"/>
				<path style="fill:#D85714;" d="M252.997,173.429l4.824-5.866c0.598-0.727,0.493-1.812-0.235-2.411l0,0
					c-0.728-0.598-1.812-0.493-2.411,0.235l-4.824,5.866c-0.598,0.728-0.493,1.812,0.235,2.411l0,0
					C251.314,174.262,252.399,174.156,252.997,173.429z"/>
			</g>
			
				<line style="fill:none;stroke:#2D201B;stroke-width:0.5211;stroke-linecap:round;stroke-linejoin:round;stroke-miterlimit:10;" x1="245.521" y1="167.28" x2="250.352" y2="171.253"/>
			
				<path style="fill:none;stroke:#2D201B;stroke-width:0.5211;stroke-linecap:round;stroke-linejoin:round;stroke-miterlimit:10;" d="
				M247.286,174.214c0,0,1.673-1.788,0.65-4.947"/>
		</g>
		<path style="fill:#2D201B;" d="M152.561,171.62c1.889-1.019,3.144-3.117,3.148-5.263c1.051,1.252,2.898,2.111,4.528,2.233
			c1.63,0.122,3.3-0.44,4.525-1.522c1.845,1.396,4.284,1.356,6.457,0.561c2.173-0.795,3.885-2.743,4.394-5
			c2.952-0.893,5.654-2.268,7.278-4.891c1.623-2.622,1.917-6.152,0.31-8.783c-1.608-2.632-5.251-3.972-8.014-2.602
			c-2.051,1.017-3.263,3.18-4.091,5.314c-0.829,2.134-1.424,4.408-2.778,6.253c-1.791,2.441-4.879,3.867-7.898,3.648
			c-2.489-0.18-5.033-1.382-7.381-0.537c-1.913,0.689-3.154,2.629-3.569,4.619c-0.415,1.99-0.144,4.052,0.128,6.068
			C150.396,171.222,151.732,171.176,152.561,171.62z"/>
		<path style="fill:#D85714;" d="M146.929,173.784c0.148,1.464,1.454,2.532,2.919,2.384c1.464-0.148,2.532-1.454,2.384-2.919
			c-0.148-1.464-1.454-2.531-2.919-2.384C147.849,171.013,146.781,172.32,146.929,173.784z"/>
	</g>
	<path style="fill:none;stroke:#15181F;stroke-width:0.9438;stroke-linecap:round;stroke-linejoin:round;stroke-miterlimit:10;" d="
		M267.857,263.898c2.017,9.881,8.371,18.796,17.052,23.929c8.681,5.132,19.555,6.401,29.185,3.406"/>
	<path style="fill:none;stroke:#FCF7F2;stroke-width:0.5165;stroke-miterlimit:10;" d="M265.748,427.229
		c0,2.436-3.958,4.41-8.841,4.41c-4.882,0-8.84-1.975-8.84-4.41c0-2.436,3.958-4.41,8.84-4.41
		C261.79,422.819,265.748,424.793,265.748,427.229z"/>
	<g>
		<path style="fill:#FCF7F2;" d="M407.02,418.589c-0.289,0.145-0.583,0.295-0.883,0.439
			c-94.125-14.418-121.673-2.369-128.129,10.413c-4.101,8.117,0.584,16.504,1.265,17.646c0.046,0.084,0.072,0.126,0.077,0.132
			l-0.398,0.343c-0.005-0.012-0.103-0.169-0.263-0.451c-1.1-1.966-5.098-10.071-1.116-17.959
			C284.118,416.178,311.955,403.925,407.02,418.589z"/>
	</g>
	<polygon style="fill:#FCF7F2;" points="115.003,249.433 115.952,251.168 117.687,252.117 115.952,253.066 115.003,254.801 
		114.054,253.066 112.319,252.117 114.054,251.168 	"/>
	<polygon style="fill:#FCF7F2;" points="102.952,229.549 103.234,230.066 103.751,230.348 103.234,230.631 102.952,231.148 
		102.669,230.631 102.152,230.348 102.669,230.066 	"/>
	<polygon style="fill:#FCF7F2;" points="122.78,285.176 123.789,287.022 125.635,288.031 123.789,289.041 122.78,290.887 
		121.77,289.041 119.924,288.031 121.77,287.022 	"/>
	<polygon style="fill:#FCF7F2;" points="123.403,301.505 125.117,304.639 128.251,306.353 125.117,308.068 123.403,311.202 
		121.689,308.068 118.554,306.353 121.689,304.639 	"/>
	<polygon style="fill:#FCF7F2;" points="197.413,253.545 199.332,257.054 202.841,258.973 199.332,260.892 197.413,264.401 
		195.494,260.892 191.985,258.973 195.494,257.054 	"/>
	<polygon style="fill:#FCF7F2;" points="207.014,244.123 207.826,245.608 209.312,246.42 207.826,247.232 207.014,248.717 
		206.202,247.232 204.717,246.42 206.202,245.608 	"/>
	<polygon style="fill:#FCF7F2;" points="277.067,249.603 277.956,251.228 279.581,252.117 277.956,253.006 277.067,254.631 
		276.179,253.006 274.554,252.117 276.179,251.228 	"/>
	<polygon style="fill:#FCF7F2;" points="285.773,233.169 286.878,235.19 288.899,236.295 286.878,237.4 285.773,239.42 
		284.668,237.4 282.648,236.295 284.668,235.19 	"/>
	<polygon style="fill:#FCF7F2;" points="389.97,269.542 391.209,271.807 393.474,273.046 391.209,274.284 389.97,276.549 
		388.732,274.284 386.466,273.046 388.732,271.807 	"/>
	<polygon style="fill:#FCF7F2;" points="386.472,285.062 386.997,286.022 387.957,286.547 386.997,287.072 386.472,288.031 
		385.948,287.072 384.988,286.547 385.948,286.022 	"/>
	<polygon style="fill:#FCF7F2;" points="408.832,218.788 410.591,222.004 413.807,223.763 410.591,225.522 408.832,228.738 
		407.073,225.522 403.857,223.763 407.073,222.004 	"/>
	<polygon style="fill:#FCF7F2;" points="412.51,147.698 414.269,150.915 417.485,152.673 414.269,154.432 412.51,157.648 
		410.751,154.432 407.535,152.673 410.751,150.915 	"/>
	<polygon style="fill:#FCF7F2;" points="429.754,192.551 430.681,194.247 432.378,195.175 430.681,196.102 429.754,197.798 
		428.826,196.102 427.13,195.175 428.826,194.247 	"/>
	<polygon style="fill:#FCF7F2;" points="419.147,138.671 419.966,140.17 421.465,140.99 419.966,141.809 419.147,143.308 
		418.327,141.809 416.828,140.99 418.327,140.17 	"/>
	<polygon style="fill:#FCF7F2;" points="452.188,206.363 453.66,209.053 456.35,210.525 453.66,211.997 452.188,214.687 
		450.716,211.997 448.026,210.525 450.716,209.053 	"/>
	<polygon style="fill:#FCF7F2;" points="310.328,125.81 311.572,128.085 313.847,129.329 311.572,130.574 310.328,132.849 
		309.084,130.574 306.809,129.329 309.084,128.085 	"/>
	<polygon style="fill:#FCF7F2;" points="328.315,121.563 329.023,122.856 330.316,123.563 329.023,124.271 328.315,125.564 
		327.608,124.271 326.315,123.563 327.608,122.856 	"/>
	<polygon style="fill:#FCF7F2;" points="314.97,352.47 316.475,355.222 319.226,356.727 316.475,358.231 314.97,360.983 
		313.465,358.231 310.713,356.727 313.465,355.222 	"/>
	<polygon style="fill:#FCF7F2;" points="308.744,365.553 309.622,367.159 311.227,368.037 309.622,368.915 308.744,370.52 
		307.866,368.915 306.26,368.037 307.866,367.159 	"/>
	<polygon style="fill:#FCF7F2;" points="191.985,372.182 193.563,375.067 196.448,376.645 193.563,378.223 191.985,381.108 
		190.407,378.223 187.522,376.645 190.407,375.067 	"/>
	<polygon style="fill:#FCF7F2;" points="202.841,363.438 201.602,361.172 199.337,359.934 201.602,358.694 202.841,356.429 
		204.08,358.694 206.345,359.934 204.08,361.172 	"/>
	<polygon style="fill:#FCF7F2;" points="110.411,420.687 111.548,422.765 113.625,423.901 111.548,425.037 110.411,427.115 
		109.275,425.037 107.198,423.901 109.275,422.765 	"/>
	<polygon style="fill:#FCF7F2;" points="133.688,427.115 134.824,429.192 136.902,430.328 134.824,431.464 133.688,433.542 
		132.552,431.464 130.474,430.328 132.552,429.192 	"/>
	<polygon style="fill:#FCF7F2;" points="104.02,421.161 103.615,420.419 102.873,420.013 103.615,419.608 104.02,418.866 
		104.426,419.608 105.168,420.013 104.426,420.419 	"/>
	<polygon style="fill:#FCF7F2;" points="122.91,440.299 122.044,438.716 120.46,437.849 122.044,436.983 122.91,435.399 
		123.777,436.983 125.36,437.849 123.777,438.716 	"/>
	<path style="fill:none;stroke:#15181F;stroke-width:0.9563;stroke-linecap:round;stroke-linejoin:round;stroke-miterlimit:10;" d="
		M70.168,408.01c-0.827,13.874,1.574,27.93,6.959,40.744"/>
	<g>
		
			<path style="fill:none;stroke:#15181F;stroke-width:0.9563;stroke-linecap:round;stroke-linejoin:round;stroke-miterlimit:10;" d="
			M121.306,357.004c4.488,29.58,0.974,60.291-9.945,88.138"/>
		<g>
			<path style="fill:#F7EBE2;" d="M169.001,334.366c-1.952-6.586-18.368-5.78-23.462-2.673c3.243-4.539,4.885-9.034,5.992-14.501
				c0.65-3.212,0.887-6.623-0.225-9.706c-1.112-3.083-3.826-5.755-7.092-6.02c-4.927-0.401-8.621,4.37-10.739,8.836
				c-2.624,5.533-4.409,11.464-5.274,17.526c-2.139-7.374-6.814-13.987-13.052-18.462c-1.448-1.039-3.119-2.002-4.895-1.846
				c-2.45,0.215-4.278,2.604-4.606,5.041c-0.328,2.437,0.516,4.876,1.526,7.118c1.827,4.056,4.262,7.832,7.173,11.197
				c-7.525-4.085-15.896-6.617-24.434-7.283c-3.442-0.268-7.094-0.197-10.078,1.539c-2.984,1.736-4.961,5.62-3.522,8.759
				c0.894,1.95,2.836,3.185,4.749,4.156c5.949,3.02,12.64,4.564,19.311,4.456c-6.418,0.286-13.431,1.76-17.345,6.854
				c-1.036,1.349-1.825,3.058-1.458,4.719c0.588,2.659,3.691,3.842,6.385,4.245c6.147,0.92,12.547,0.085,18.253-2.381
				c-1.851,2.115-3.751,4.315-4.584,7c-0.833,2.685-0.304,6.006,1.989,7.632c2.934,2.081,7.068,0.508,9.901-1.708
				c3.281-2.567,5.921-5.947,7.616-9.753c-1.324,4.668,1.378,10.492,6.149,11.373c4.771,0.881,9.561-5.153,6.82-9.157
				c3.384,4.944,22.74,10.689,25.074,2.686c1.099-3.771-2.652-8.022-5.528-9.887c-2.921-1.894-6.342-2.834-9.701-3.747
				c4.225,0.439,6.429-1.08,10.521-2.225c4.809-1.346,10.304-3.219,13.084-7.692C169.105,337.955,169.47,335.947,169.001,334.366z"
				/>
			<ellipse style="fill:#F8E876;" cx="122.513" cy="343.599" rx="16.633" ry="8.186"/>
		</g>
	</g>
	<g>
		<path style="fill:#15181F;" d="M75.311,442.952c-7.444-6.141-15.349-12.036-24.494-15.115c-3.304-1.112-6.922-1.837-10.252-0.805
			c-3.33,1.032-6.168,4.303-5.667,7.753c0.323,2.224,1.943,4.099,3.879,5.24c1.936,1.141,4.173,1.652,6.383,2.063
			C53.102,443.563,67.242,442.579,75.311,442.952"/>
		<path style="fill:none;stroke:#FFFFFF;stroke-width:0.519;stroke-linecap:round;stroke-linejoin:round;stroke-miterlimit:10;" d="
			M47.25,433.875c2.465,0.339,13.761,2.983,22.758,7.025"/>
	</g>
	<g>
		<path style="fill:#15181F;" d="M123.207,389.902c4.677-3.858,9.644-7.562,15.39-9.496c2.076-0.699,4.349-1.154,6.441-0.506
			c2.092,0.648,3.875,2.704,3.56,4.871c-0.203,1.398-1.221,2.575-2.437,3.292c-1.217,0.717-2.622,1.038-4.01,1.296
			C137.16,390.286,128.277,389.667,123.207,389.902"/>
		
			<path style="fill:none;stroke:#FFFFFF;stroke-width:0.3261;stroke-linecap:round;stroke-linejoin:round;stroke-miterlimit:10;" d="
			M140.837,384.199c-1.549,0.213-8.646,1.874-14.299,4.414"/>
	</g>
	<g>
		<path style="fill:#15181F;" d="M72.761,436.282c6.045-4.986,12.464-9.774,19.891-12.274c2.683-0.903,5.621-1.491,8.325-0.654
			c2.704,0.838,5.008,3.495,4.602,6.296c-0.262,1.806-1.577,3.328-3.15,4.255c-1.572,0.927-3.388,1.342-5.183,1.675
			C90.795,436.779,79.313,435.979,72.761,436.282"/>
		
			<path style="fill:none;stroke:#FFFFFF;stroke-width:0.4215;stroke-linecap:round;stroke-linejoin:round;stroke-miterlimit:10;" d="
			M95.548,428.911c-2.002,0.275-11.175,2.422-18.481,5.705"/>
	</g>
	<g>
		<path style="fill:#15181F;" d="M446.658,230.428c6.045-4.986,12.464-9.774,19.891-12.274c2.683-0.903,5.621-1.491,8.325-0.654
			c2.704,0.838,5.008,3.495,4.602,6.296c-0.262,1.806-1.577,3.328-3.15,4.255c-1.573,0.927-3.388,1.342-5.183,1.675
			C464.693,230.924,453.211,230.125,446.658,230.428"/>
		
			<path style="fill:none;stroke:#FFFFFF;stroke-width:0.4215;stroke-linecap:round;stroke-linejoin:round;stroke-miterlimit:10;" d="
			M469.445,223.057c-2.002,0.275-11.175,2.422-18.481,5.705"/>
	</g>
	<g>
		<path style="fill:#15181F;" d="M57.804,230.428c-6.045-4.986-12.464-9.774-19.891-12.274c-2.683-0.903-5.621-1.491-8.325-0.654
			c-2.704,0.838-5.008,3.495-4.602,6.296c0.262,1.806,1.577,3.328,3.15,4.255c1.573,0.927,3.389,1.342,5.183,1.675
			C39.769,230.924,51.251,230.125,57.804,230.428"/>
		
			<path style="fill:none;stroke:#FFFFFF;stroke-width:0.4215;stroke-linecap:round;stroke-linejoin:round;stroke-miterlimit:10;" d="
			M35.017,223.057c2.002,0.275,11.175,2.422,18.481,5.705"/>
	</g>
	<g>
		<path style="fill:#15181F;" d="M56.036,230.654c7.582-6.255,15.634-12.259,24.949-15.395c3.365-1.133,7.051-1.871,10.442-0.82
			s6.282,4.383,5.772,7.897c-0.329,2.266-1.979,4.175-3.951,5.337c-1.973,1.162-4.25,1.683-6.501,2.101
			C78.657,231.276,64.255,230.273,56.036,230.654"/>
		
			<path style="fill:none;stroke:#FFFFFF;stroke-width:0.5286;stroke-linecap:round;stroke-linejoin:round;stroke-miterlimit:10;" d="
			M84.618,221.408c-2.511,0.345-14.017,3.038-23.181,7.156"/>
	</g>
	<g>
		<path style="fill:#15181F;" d="M305.688,436.665c6.569-4.271,13.489-8.302,21.15-9.947c2.768-0.594,5.754-0.846,8.346,0.292
			c2.592,1.138,4.581,4.038,3.861,6.776c-0.465,1.765-1.943,3.129-3.611,3.872s-3.518,0.95-5.339,1.078
			C323.551,439.196,312.233,437.104,305.688,436.665"/>
		
			<path style="fill:none;stroke:#FFFFFF;stroke-width:0.4215;stroke-linecap:round;stroke-linejoin:round;stroke-miterlimit:10;" d="
			M329.162,431.917c-2.02,0.047-11.377,1.144-19.007,3.58"/>
	</g>
	<g>
		<path style="fill:#515EFA;" d="M73.584,379.41c-3.667-4.971-8.484-9.088-13.965-11.936c-2.313-1.202-4.839-2.198-7.443-2.085
			c-2.604,0.113-5.291,1.575-6.173,4.028c-1.156,3.214,1.037,6.627,3.396,9.097c2.183,2.286,4.615,4.335,7.238,6.099
			c0.425-0.178,0.733,0.361,0.312,0.173c-4.162-1.853-8.465-3.389-12.86-4.589c-2.798-0.764-5.645-1.395-8.537-1.616
			c-2.484-0.19-5.098-0.048-7.27,1.172s-3.756,3.756-3.214,6.188c0.587,2.633,3.252,4.184,5.693,5.332
			c3.677,1.73,7.441,3.276,11.272,4.63c-6.454,1.787-10.951,5.203-15.126,10.44c-1.323,1.659-2.534,3.68-2.194,5.774
			c0.192,1.18,0.869,2.238,1.706,3.092c2.677,2.734,6.91,3.488,10.665,2.75c3.754-0.738,7.123-2.766,10.256-4.963
			c3.957-2.774,7.685-5.876,11.132-9.263c-1.905,3.813-3.578,7.691-3.462,11.952c0.115,4.261,3.118,8.773,7.376,8.98
			c2.458,0.119,4.817-1.213,6.452-3.052c1.634-1.839,2.644-4.142,3.499-6.449c1.367-3.69,2.408-7.526,2.724-11.448
			c0.215,2.468,0.298,3.826,0.876,6.235c0.715,2.977,1.782,6.014,4.002,8.122c2.22,2.108,5.872,2.973,8.399,1.243
			c2.124-1.454,2.891-4.266,2.841-6.839c-0.047-2.415-0.678-4.817-1.825-6.943c5.928,6.538,13.615,8.897,22.413,9.582
			c1.878,0.146,3.815,0.133,5.582-0.519c1.767-0.651,3.351-2.041,3.813-3.867c0.688-2.717-1.203-5.406-3.284-7.284
			c-4.757-4.29-11.156-6.711-17.561-6.644c4.158-0.81,7.599-2.197,11.422-4.021c2.944-1.404,6.658-3.862,8.253-6.822
			c5.091-9.451-14.065-6.843-17.763-6.098c-5.57,1.122-10.877,3.256-16.148,5.379c3.717-2.838,7.561-6.917,10.436-10.607
			c7.452-9.563-6.291-17.238-14.233-10.374C77.106,368.735,75.324,372.792,73.584,379.41z"/>
		<ellipse style="fill:#E697D2;" cx="72.981" cy="392.069" rx="16.684" ry="8.211"/>
	</g>
	<g>
		<g>
			<path style="fill:#15181F;" d="M387.773,383.606c4.539-2.951,9.32-5.736,14.613-6.872c1.912-0.411,3.975-0.585,5.766,0.201
				c1.791,0.786,3.165,2.79,2.667,4.681c-0.321,1.22-1.343,2.162-2.495,2.675c-1.152,0.513-2.431,0.656-3.689,0.745
				C400.115,385.355,392.295,383.91,387.773,383.606"/>
			
				<path style="fill:none;stroke:#FFFFFF;stroke-width:0.2912;stroke-linecap:round;stroke-linejoin:round;stroke-miterlimit:10;" d="
				M403.992,380.326c-1.396,0.032-7.86,0.79-13.132,2.473"/>
		</g>
		
			<path style="fill:none;stroke:#15181F;stroke-width:0.9563;stroke-linecap:round;stroke-linejoin:round;stroke-miterlimit:10;" d="
			M389.186,350.677c-5.311,19.448,0.329,58.776,8.353,85.028"/>
		<g>
			<path style="fill:#F7EBE2;" d="M441.389,323.695c-2.128-7.182-20.03-6.303-25.585-2.915c3.536-4.949,5.327-9.851,6.534-15.813
				c0.709-3.503,0.967-7.222-0.245-10.583c-1.213-3.362-4.172-6.275-7.734-6.565c-5.372-0.437-9.401,4.766-11.711,9.636
				c-2.862,6.034-4.808,12.501-5.752,19.112c-2.332-8.041-7.43-15.252-14.233-20.132c-1.579-1.133-3.401-2.183-5.337-2.013
				c-2.671,0.235-4.665,2.839-5.022,5.497c-0.357,2.658,0.562,5.317,1.664,7.762c1.992,4.423,4.648,8.541,7.822,12.21
				c-8.205-4.454-17.334-7.215-26.644-7.941c-3.753-0.293-7.735-0.214-10.99,1.678c-3.254,1.892-5.41,6.129-3.84,9.551
				c0.975,2.126,3.093,3.473,5.178,4.531c6.487,3.293,13.783,4.977,21.057,4.859c-6.999,0.312-14.646,1.919-18.914,7.474
				c-1.13,1.471-1.99,3.335-1.59,5.145c0.641,2.9,4.025,4.189,6.962,4.629c6.703,1.004,13.682,0.093,19.904-2.597
				c-2.019,2.306-4.091,4.706-4.999,7.633c-0.908,2.928-0.331,6.549,2.169,8.322c3.199,2.269,7.708,0.553,10.797-1.863
				c3.578-2.799,6.456-6.485,8.305-10.635c-1.444,5.09,1.502,11.441,6.705,12.402c5.203,0.961,10.426-5.62,7.437-9.986
				c3.69,5.391,24.797,11.656,27.342,2.929c1.199-4.112-2.891-8.748-6.028-10.781c-3.186-2.065-6.915-3.09-10.579-4.086
				c4.607,0.478,7.011-1.177,11.473-2.426c5.244-1.467,11.236-3.51,14.267-8.388C441.502,327.61,441.9,325.42,441.389,323.695z"/>
			<ellipse style="fill:#F8E876;" cx="390.695" cy="333.764" rx="18.137" ry="8.926"/>
		</g>
		<g>
			<path style="fill:#F8E876;" d="M490.678,171.477c-3.672-6.141-20.029-1.083-24.365,3.369c2.099-5.418,2.594-10.379,2.297-16.182
				c-0.174-3.409-0.817-6.912-2.736-9.735c-1.919-2.823-5.348-4.817-8.713-4.241c-5.075,0.869-7.569,6.638-8.552,11.692
				c-1.217,6.262-1.485,12.707-0.791,19.048c-4.064-6.887-10.491-12.351-17.943-15.255c-1.73-0.674-3.665-1.214-5.416-0.597
				c-2.416,0.85-3.643,3.733-3.344,6.277c0.299,2.544,1.781,4.787,3.38,6.788c2.892,3.621,6.326,6.801,10.132,9.443
				c-8.649-2.177-17.75-2.567-26.537-1.031c-3.542,0.619-7.208,1.636-9.771,4.158c-2.563,2.523-3.553,6.954-1.289,9.748
				c1.406,1.736,3.685,2.48,5.866,2.965c6.783,1.51,13.934,1.338,20.637-0.496c-6.402,1.948-13.098,5.248-15.73,11.401
				c-0.697,1.629-1.051,3.557-0.251,5.138c1.281,2.531,4.717,2.922,7.54,2.633c6.441-0.661,12.683-3.158,17.802-7.122
				c-1.321,2.613-2.67,5.324-2.816,8.248c-0.146,2.924,1.246,6.139,3.98,7.187c3.498,1.341,7.263-1.315,9.549-4.284
				c2.647-3.438,4.437-7.532,5.164-11.81c-0.129,5.052,4.103,10.23,9.145,9.886c5.042-0.344,8.315-7.672,4.515-11.003
				c4.693,4.114,25.709,4.906,25.994-3.773c0.134-4.089-4.75-7.409-8.134-8.547c-3.437-1.156-7.132-1.22-10.758-1.273
				c4.376-0.649,6.208-2.751,10.041-4.965c4.505-2.601,9.565-5.911,11.213-11.144C491.711,175.072,491.56,172.952,490.678,171.477z"
				/>
			<path style="fill:#E697D2;" d="M469.391,186.859c1.618,6.315-7.473,14.1-20.305,17.388c-12.832,3.288-24.546,0.834-26.164-5.481
				s7.473-14.1,20.305-17.388C456.059,178.09,467.773,180.544,469.391,186.859z"/>
			<path style="fill:#2D201B;" d="M432.028,205.151c4.703,0.939,10.744,0.714,17.059-0.904c11.105-2.845,19.403-9.059,20.387-14.773
				C455.873,188.735,443.196,196.094,432.028,205.151z"/>
		</g>
	</g>
	<path style="fill:none;stroke:#15181F;stroke-width:0.9563;stroke-linecap:round;stroke-linejoin:round;stroke-miterlimit:10;" d="
		M302.282,411.665c-0.338,9.952,1.336,19.967,4.893,29.268"/>
	<g>
		<path style="fill:#D85714;" d="M297.586,393.599c-3.686-3.718-8.232-6.578-13.178-8.292c-2.087-0.723-4.328-1.248-6.498-0.833
			c-2.17,0.415-4.243,1.971-4.681,4.137c-0.574,2.837,1.685,5.429,3.966,7.21c2.112,1.649,4.403,3.068,6.819,4.224
			c0.335-0.201,0.659,0.213,0.283,0.107c-3.718-1.042-7.515-1.801-11.348-2.267c-2.44-0.297-4.905-0.475-7.358-0.305
			c-2.106,0.146-4.281,0.586-5.952,1.877c-1.671,1.29-2.687,3.612-1.934,5.584c0.815,2.136,3.241,3.109,5.429,3.771
			c3.296,0.998,6.642,1.832,10.022,2.496c-5.193,2.292-8.543,5.71-11.4,10.615c-0.905,1.554-1.673,3.397-1.129,5.112
			c0.306,0.966,1.004,1.77,1.811,2.383c2.581,1.963,6.223,2.075,9.281,0.994c3.058-1.081,5.633-3.195,7.99-5.423
			c2.977-2.813,5.721-5.872,8.195-9.136c-1.129,3.431-2.054,6.89-1.434,10.448c0.621,3.559,3.694,6.973,7.289,6.623
			c2.075-0.202,3.89-1.61,5.035-3.353c1.144-1.743,1.708-3.799,2.141-5.839c0.692-3.262,1.094-6.607,0.877-9.935
			c0.484,2.043,0.72,3.171,1.502,5.12c0.966,2.408,2.234,4.824,4.355,6.319c2.121,1.495,5.29,1.771,7.195,0.01
			c1.602-1.481,1.899-3.932,1.541-6.084c-0.336-2.02-1.161-3.956-2.384-5.598c5.775,4.753,12.511,5.786,19.973,5.279
			c1.593-0.108,3.215-0.358,4.617-1.121c1.402-0.764,2.559-2.124,2.722-3.711c0.243-2.363-1.674-4.386-3.65-5.704
			c-4.516-3.012-10.18-4.256-15.543-3.412c3.387-1.191,6.102-2.777,9.084-4.776c2.296-1.539,5.108-4.057,6.082-6.736
			c3.107-8.551-12.636-4.009-15.645-2.93c-4.533,1.626-8.721,4.068-12.879,6.496c2.767-2.837,5.489-6.73,7.446-10.177
			c5.073-8.935-7.395-13.681-13.21-6.949C299.227,384.215,298.231,387.835,297.586,393.599z"/>
		<path style="fill:#F8E876;" d="M312.627,402.237c0.558,3.803-5.254,7.804-12.981,8.937c-7.727,1.133-14.443-1.031-15-4.834
			c-0.558-3.803,5.254-7.804,12.981-8.937C305.353,396.27,312.069,398.434,312.627,402.237z"/>
	</g>
	<path style="fill:#15181F;" d="M86.719,448.754c0,1.341-4.295,2.429-9.592,2.429c-5.298,0-9.592-1.087-9.592-2.429
		c0-1.341,4.295-2.429,9.592-2.429C82.424,446.325,86.719,447.412,86.719,448.754z"/>
	<path style="fill:#15181F;" d="M124.81,445.133c0,1.341-4.295,2.429-9.592,2.429c-5.298,0-9.592-1.087-9.592-2.429
		c0-1.341,4.295-2.429,9.592-2.429C120.515,442.704,124.81,443.792,124.81,445.133z"/>
	<ellipse style="fill:#15181F;" cx="305.688" cy="442.704" rx="9.592" ry="2.429"/>
	<ellipse style="fill:#15181F;" cx="427.775" cy="435.82" rx="51.545" ry="15.362"/>
	<g>
		<path style="fill:#515EFA;" d="M406.113,409.855c-4.346-5.892-10.055-10.771-16.551-14.146c-2.742-1.424-5.735-2.605-8.821-2.471
			c-3.087,0.134-6.27,1.866-7.316,4.774c-1.37,3.809,1.229,7.854,4.025,10.781c2.587,2.71,5.469,5.138,8.578,7.229
			c0.504-0.21,0.869,0.428,0.37,0.206c-4.932-2.197-10.032-4.017-15.241-5.439c-3.316-0.906-6.69-1.653-10.118-1.915
			c-2.944-0.225-6.042-0.057-8.616,1.389c-2.574,1.446-4.451,4.452-3.809,7.334c0.695,3.121,3.854,4.959,6.747,6.32
			c4.358,2.05,8.819,3.882,13.36,5.488c-7.65,2.118-12.979,6.167-17.927,12.374c-1.568,1.967-3.004,4.361-2.6,6.843
			c0.228,1.399,1.03,2.652,2.022,3.665c3.173,3.24,8.19,4.134,12.64,3.259c4.45-0.875,8.442-3.279,12.155-5.882
			c4.69-3.288,9.108-6.964,13.193-10.978c-2.258,4.519-4.24,9.116-4.104,14.166c0.137,5.05,3.696,10.398,8.742,10.643
			c2.913,0.141,5.709-1.438,7.646-3.618c1.937-2.18,3.134-4.909,4.147-7.644c1.62-4.373,2.854-8.919,3.229-13.568
			c0.255,2.926,0.353,4.534,1.039,7.389c0.847,3.528,2.112,7.128,4.743,9.626c2.632,2.498,6.96,3.524,9.954,1.474
			c2.517-1.724,3.426-5.056,3.367-8.106c-0.055-2.862-0.803-5.709-2.163-8.228c7.025,7.748,16.136,10.544,26.564,11.357
			c2.226,0.173,4.521,0.157,6.616-0.615s3.971-2.419,4.519-4.583c0.815-3.22-1.426-6.408-3.893-8.633
			c-5.638-5.084-13.222-7.954-20.813-7.874c4.928-0.96,9.006-2.604,13.537-4.765c3.489-1.664,7.89-4.577,9.781-8.086
			c6.034-11.201-16.67-8.11-21.052-7.228c-6.602,1.33-12.892,3.859-19.138,6.375c4.405-3.363,8.961-8.198,12.368-12.571
			c8.833-11.334-7.456-20.43-16.868-12.295C410.287,397.203,408.174,402.01,406.113,409.855z"/>
		<ellipse style="fill:#E697D2;" cx="405.397" cy="424.858" rx="19.774" ry="9.732"/>
	</g>
	<g>
		<path style="fill:#515EFA;" d="M65.359,176.434c-3.03-5.571-7.35-10.436-12.524-14.102c-2.184-1.547-4.612-2.916-7.276-3.167
			c-2.664-0.251-5.602,0.858-6.844,3.229c-1.627,3.106,0.123,6.885,2.175,9.729c1.899,2.632,4.084,5.058,6.503,7.22
			c0.457-0.121,0.695,0.47,0.293,0.22c-3.972-2.47-8.132-4.637-12.433-6.476c-2.738-1.171-5.545-2.212-8.455-2.844
			c-2.499-0.543-5.178-0.766-7.558,0.17c-2.38,0.935-4.348,3.292-4.139,5.841c0.226,2.76,2.719,4.712,5.04,6.223
			c3.497,2.276,7.107,4.378,10.813,6.294c-6.816,0.91-11.869,3.752-16.851,8.491c-1.579,1.502-3.095,3.386-3.043,5.564
			c0.029,1.228,0.569,2.398,1.3,3.385c2.338,3.157,6.537,4.519,10.459,4.296c3.922-0.223,7.633-1.812,11.128-3.605
			c4.415-2.265,8.641-4.895,12.623-7.855c-2.473,3.61-4.72,7.319-5.202,11.669c-0.482,4.349,1.938,9.361,6.239,10.169
			c2.483,0.467,5.07-0.557,6.991-2.197c1.921-1.641,3.272-3.841,4.465-6.067c1.909-3.561,3.507-7.315,4.38-11.26
			c-0.128,2.541-0.235,3.932,0.015,6.464c0.308,3.128,0.966,6.367,2.928,8.823c1.962,2.456,5.554,3.849,8.367,2.445
			c2.365-1.18,3.54-3.932,3.851-6.556c0.292-2.463-0.012-4.994-0.88-7.317c5.109,7.482,12.596,10.962,21.447,12.896
			c1.889,0.413,3.861,0.671,5.75,0.257c1.889-0.414,3.695-1.605,4.422-3.396c1.082-2.667-0.463-5.668-2.316-7.87
			c-4.234-5.032-10.402-8.394-16.926-9.226c4.342-0.239,8.037-1.166,12.182-2.483c3.191-1.014,7.314-2.991,9.353-5.778
			c6.507-8.896-13.342-8.937-17.207-8.699c-5.823,0.358-11.52,1.782-17.179,3.2c4.179-2.363,8.662-5.972,12.104-9.32
			c8.924-8.678-3.974-18.416-13.016-12.551C70.442,166.073,68.059,169.947,65.359,176.434z"/>
		<path style="fill:#D85714;" d="M84.978,192.267c-0.827,5.983-11.353,9.471-23.51,7.79c-12.157-1.681-21.342-7.893-20.514-13.876
			c0.827-5.983,11.353-9.471,23.51-7.79C76.62,180.071,85.805,186.284,84.978,192.267z"/>
		<path style="fill:#15181F;" d="M51.234,197.33c2.987,1.249,6.467,2.206,10.233,2.727c12.157,1.681,22.683-1.807,23.51-7.79
			c0.061-0.443,0.061-0.888,0.015-1.331C72.817,189.17,61.491,191.873,51.234,197.33z"/>
	</g>
</g>
</svg>
